<?xml version="1.0" encoding="UTF-8" standalone="no"?>
<!-- Created with Inkscape (http://www.inkscape.org/) -->

<svg
   width="210mm"
   height="297mm"
   viewBox="0 0 210 297"
   version="1.1"
   id="svg1"
   inkscape:version="1.3 (0e150ed6c4, 2023-07-21)"
   sodipodi:docname="ramu kaka thumps up.svg"
   inkscape:export-filename="ramu kaka.png"
   inkscape:export-xdpi="96"
   inkscape:export-ydpi="96"
   xmlns:inkscape="http://www.inkscape.org/namespaces/inkscape"
   xmlns:sodipodi="http://sodipodi.sourceforge.net/DTD/sodipodi-0.dtd"
   xmlns="http://www.w3.org/2000/svg"
   xmlns:svg="http://www.w3.org/2000/svg">
  <sodipodi:namedview
     id="namedview1"
     pagecolor="#505050"
     bordercolor="#ffffff"
     borderopacity="1"
     inkscape:showpageshadow="0"
     inkscape:pageopacity="0"
     inkscape:pagecheckerboard="1"
     inkscape:deskcolor="#505050"
     inkscape:document-units="mm"
     inkscape:zoom="0.69219276"
     inkscape:cx="58.509713"
     inkscape:cy="655.16432"
     inkscape:window-width="1920"
     inkscape:window-height="991"
     inkscape:window-x="-9"
     inkscape:window-y="-9"
     inkscape:window-maximized="1"
     inkscape:current-layer="layer1"
     inkscape:export-bgcolor="#00000000" />
  <defs
     id="defs1" />
  <g
     inkscape:label="Layer 1"
     inkscape:groupmode="layer"
     id="layer1">
    <path
       style="fill:#cccccc;stroke-width:0.244016"
       id="path118"
       sodipodi:type="arc"
       sodipodi:cx="-238.23103"
       sodipodi:cy="71.920502"
       sodipodi:rx="16.352184"
       sodipodi:ry="56.354225"
       sodipodi:start="0"
       sodipodi:end="6.2645772"
       sodipodi:open="true"
       sodipodi:arc-type="arc"
       d="m -221.87885,71.920502 a 16.352184,56.354225 0 0 1 -16.27611,56.353618 16.352184,56.354225 0 0 1 -16.42755,-55.829303 16.352184,56.354225 0 0 1 16.12327,-56.873052 16.352184,56.354225 0 0 1 16.57756,55.300152"
       transform="rotate(-107.40049)" />
    <path
       id="path30"
       style="fill:#a0892c;fill-opacity:1;stroke-width:0.297327"
       d="m 105.52758,141.91033 a 49.732263,116.78149 0 0 0 -49.035758,117.85689 49.732263,116.78149 0 0 0 0.14211,4.47208 c 5.772278,0.11406 11.669957,0.23264 16.865121,0.32039 17.757194,0.29994 37.181407,0.58 55.941287,0.69298 0.8171,-0.10031 1.63465,-0.20111 2.45204,-0.29921 0.94915,0.0449 1.89733,0.15661 2.84014,0.33073 6.13133,0.0256 12.19339,0.0238 18.03973,0.014 1.00654,-0.004 2.01338,-0.0322 3.01997,-0.0388 a 49.732263,116.78149 0 0 0 0.16123,-6.57841 l -0.008,-2.17351 A 49.732263,116.78149 0 0 0 105.5281,141.91033 Z M 78.780384,268.52121 c 0.276915,0.0273 0.552895,0.0546 0.831474,0.0832 -3.44e-4,-0.024 -0.0031,-0.048 -0.0031,-0.0718 -0.268094,-0.004 -0.560872,-0.007 -0.828374,-0.0114 z m 1.283643,4.03644 c -0.0062,0.0217 -0.01659,0.0399 -0.02326,0.0615 0.110524,-0.007 0.220753,-0.0234 0.331246,-0.032 -0.103227,-0.0102 -0.205023,-0.0193 -0.307991,-0.0295 z m 64.326813,3.14348 c 8.3e-4,0.003 0.002,0.006 0.003,0.008 0.008,-0.003 0.0171,-0.006 0.0258,-0.008 -0.009,7e-5 -0.0191,-5e-5 -0.0289,0 z m -14.91588,0.54777 c -0.11747,0.10641 -0.2404,0.19887 -0.3514,0.32246 -0.0966,0.1074 0.30342,-0.031 0.33538,-0.2036 0.008,-0.0461 0.008,-0.0749 0.016,-0.11886 z m -38.070023,14.17795 c -8.36e-4,3.9e-4 -0.0017,7.8e-4 -0.0026,10e-4 8.48e-4,-2.1e-4 0.0017,-3.1e-4 0.0026,-5.2e-4 z m -0.0026,10e-4 c -0.0319,0.008 -0.06371,0.0171 -0.0956,0.0253 -0.02651,0.0196 -0.05308,0.0391 -0.07958,0.0584 0.05841,-0.0277 0.116777,-0.0559 0.175183,-0.0837 z m 21.101553,52.08881 c -0.1786,0.10031 -0.3745,0.21113 -0.55707,0.31367 0.0698,-0.0247 0.13959,-0.0492 0.20929,-0.0739 0.11579,-0.0806 0.23203,-0.15914 0.34778,-0.23978 z m -35.459333,9.93789 a 49.732263,116.78149 0 0 0 0.06046,0.11369 c 0.01746,-0.0366 0.0371,-0.069 0.05478,-0.10542 -0.03829,-0.003 -0.07755,-0.004 -0.115238,-0.008 z m 2.306836,3.406 c -0.05374,0.031 -0.107466,0.0625 -0.161231,0.0935 a 49.732263,116.78149 0 0 0 0.197921,0.28319 c 0.0104,-0.006 0.01999,-0.0101 0.02997,-0.0155 -0.03202,-0.11761 -0.06126,-0.23619 -0.06666,-0.36122 z" />
    <path
       style="fill:#ffb380;stroke-width:0.247389"
       id="path1"
       sodipodi:type="arc"
       sodipodi:cx="-95.927658"
       sodipodi:cy="-132.57722"
       sodipodi:rx="38.551991"
       sodipodi:ry="47.259411"
       sodipodi:start="0"
       sodipodi:end="6.2645772"
       sodipodi:open="true"
       sodipodi:arc-type="arc"
       d="m -57.375668,-132.57722 a 38.551991,47.259411 0 0 1 -38.372646,47.258895 38.551991,47.259411 0 0 1 -38.729666,-46.819205 38.551991,47.259411 0 0 1 38.012305,-47.6945 38.551991,47.259411 0 0 1 39.083333,46.37545"
       transform="matrix(-0.99466326,0.10317459,-0.0967555,-0.99530818,0,0)"
       inkscape:label="face" />
    <g
       id="g3"
       transform="translate(64.598455,14.525096)"
       inkscape:label="left eye">
      <ellipse
         style="fill:#241c1c;stroke-width:0.264583"
         id="path2"
         cx="33.063702"
         cy="102.24903"
         rx="14.333977"
         ry="14.716216" />
      <ellipse
         style="fill:#ffb380;stroke-width:0.264583"
         id="path3"
         cx="33.063694"
         cy="102.05793"
         rx="10.893822"
         ry="11.467181" />
    </g>
    <g
       id="g4"
       transform="translate(0.92280756,15.579068)"
       inkscape:label="right eye">
      <ellipse
         style="fill:#241c1c;stroke-width:0.264583"
         id="ellipse3"
         cx="132.44594"
         cy="100.33782"
         rx="14.333977"
         ry="14.716216" />
      <ellipse
         style="fill:#ffb380;stroke-width:0.264583"
         id="ellipse4"
         cx="132.44594"
         cy="100.14673"
         rx="10.893822"
         ry="11.467181" />
    </g>
    <path
       style="fill:#e3dbdb;stroke-width:0.264583"
       id="path7"
       d="m 65.388637,116.76895 c 0.603893,-0.29448 1.231138,-0.54275 1.872372,-0.74298 0.499726,-0.13618 1.022022,-0.24019 1.535909,-0.13125 0.04668,0.0199 0.09626,0.0341 0.140046,0.0598 0.03833,0.0225 0.14269,0.10525 0.104027,0.0833 -1.089562,-0.61711 -2.166919,-1.25566 -3.258156,-1.86981 -0.04174,-0.0235 0.07452,0.0608 0.106733,0.0962 0.03611,0.0397 0.14542,0.20143 0.174514,0.24359 0.861615,1.12859 2.450658,2.67743 3.761676,2.0048 0.201676,-0.10347 0.369491,-0.26944 0.537231,-0.4178 0.349457,-0.32385 0.652219,-0.69861 1.060839,-0.95103 1.036519,0.87816 0.0205,0.007 -3.199117,-1.68277 -0.06124,-0.0321 0.119431,0.0721 0.169077,0.12028 0.176403,0.1711 0.273547,0.40244 0.369245,0.62267 0.57995,1.63658 0.754985,0.96662 3.653655,2.55853 0.04907,0.0269 0.107944,-0.0337 0.15571,-0.0629 0.06078,-0.0372 0.11099,-0.0894 0.166486,-0.13403 0.146804,-0.0678 0.247232,-0.23457 0.399328,-0.29203 0.02758,-0.0104 0.06751,-0.0156 0.08828,0.005 0.02871,0.0289 0.06969,0.1366 0.03372,0.11747 -1.114973,-0.59332 -2.201831,-1.23802 -3.302743,-1.85703 0.163964,0.10138 0.227671,0.28992 0.311279,0.45481 0.01754,0.0346 0.01966,0.0841 0.05331,0.10339 1.154316,0.66151 2.329291,1.28631 3.493936,1.92946 0.04062,-0.0287 0.07618,-0.0665 0.12187,-0.0862 0.01633,-0.007 0.03477,0.007 0.05215,0.0112 -1.125342,-0.6092 -2.247694,-1.22395 -3.376026,-1.8276 -0.0378,-0.0202 0.07289,0.0464 0.103228,0.0767 0.06359,0.0635 0.127367,0.17727 0.173204,0.25145 1.222663,0.51578 2.39872,1.1602 3.66799,1.54735 0.133051,0.0406 0.131961,-0.24495 0.194477,-0.36921 0.141295,-0.28085 0.288046,-0.6806 0.472162,-0.93355 0.02585,-0.0355 0.06689,-0.057 0.100338,-0.0855 0.784942,1.11044 0.04817,0.0497 -3.389614,-1.73259 -0.03823,-0.0198 0.08821,0.0309 0.109669,0.0683 0.03465,0.0603 0.03496,0.13477 0.04647,0.20333 0.02881,0.17163 0.03492,0.34035 0.04607,0.51373 0.0037,0.55695 0.180745,1.09238 0.300747,1.63194 0.113017,0.53132 0.132887,1.07541 0.202512,1.613 0.05189,0.5687 0.21422,1.11486 0.367281,1.66209 0.104087,0.36432 0.187741,0.73368 0.266084,1.10419 0.01913,0.0905 0.09882,0.45939 0.107582,0.54296 0.01233,0.11749 0.0092,0.23608 0.01386,0.35412 -0.02598,0.42798 -0.08163,0.85442 -0.156125,1.27658 -0.04265,0.24168 -0.08608,0.46697 -0.198572,0.68477 -0.05655,-1.37254 -0.01548,0.18462 3.424742,1.70467 0.08378,0.037 -0.01376,-0.18301 -0.01095,-0.27456 0.0042,-0.1356 0.0177,-0.27082 0.03175,-0.40576 0.03323,-0.31901 0.0796,-0.63652 0.117451,-0.95501 0.09165,-0.86185 0.231331,-1.71926 0.284827,-2.58477 0.01185,-0.45517 -0.02384,-0.91378 -0.0971,-1.36326 -0.105357,-0.46177 -0.370145,-0.86789 -0.625076,-1.26032 -0.231105,-0.34937 -0.47322,-0.69082 -0.705151,-1.03957 -0.873464,-1.18006 -0.21395,-0.32041 -3.579387,-2.09376 -0.05552,-0.0293 -0.121587,0.0314 -0.183155,0.0435 -0.0674,0.0133 -0.1348,0.0331 -0.203499,0.0326 -0.176636,-0.001 -0.223697,-0.0504 -0.373208,-0.13111 1.055687,0.59206 2.108184,1.18984 3.16706,1.77618 0.06127,0.0339 -0.117724,-0.0762 -0.173498,-0.11854 -0.1357,-0.10308 -0.353737,-0.34457 -0.483635,-0.41961 -1.179465,-0.68134 -2.373328,-1.33745 -3.559992,-2.00618 -0.705419,-0.0743 -1.412719,0.0415 -2.118826,0.0539 -1.411539,-0.32498 -0.437687,-0.12389 2.934407,1.68119 0.06553,0.0351 -0.127897,-0.0788 -0.179526,-0.13224 -0.163525,-0.16935 -0.234217,-0.4183 -0.312031,-0.63277 -0.50416,-1.59323 -2.481603,-2.90552 -4.13943,-2.61256 -0.307826,0.045 -0.407011,0.25426 -0.701741,0.0775 -0.0199,-0.0386 -0.09762,-0.13685 -0.05965,-0.11579 1.097878,0.60883 2.16965,1.26363 3.257945,1.88943 0.03603,0.0207 -0.06743,-0.0486 -0.1005,-0.0738 -0.03167,-0.0241 -0.0589,-0.0547 -0.09369,-0.0741 -1.171485,-0.65186 -2.331382,-1.32594 -3.523729,-1.9388 -0.04898,-0.0252 -0.10577,0.0307 -0.158652,0.0461 -0.306009,0.11079 -0.504362,0.35784 -0.72448,0.58077 -0.223041,0.23849 -0.407828,0.50816 -0.616336,0.75886 -0.951838,1.23744 -2.586485,-0.96179 3.232983,2.25015 0.03595,0.0198 0.06287,-0.0531 0.0971,-0.0758 0.05658,-0.0375 0.116557,-0.0696 0.174837,-0.10439 0.629933,-0.25812 1.324988,-0.35288 2.002808,-0.35754 0.07485,0.0103 0.151157,0.013 0.224542,0.031 0.05461,0.0134 0.104449,0.0417 0.156675,0.0625 -1.099978,-0.60926 -2.203087,-1.2129 -3.299936,-1.82779 -0.02559,-0.0143 0.06146,0.007 0.08434,0.0252 0.02508,0.0201 0.02172,0.0671 0.04989,0.0826 1.166273,0.64137 2.347896,1.25441 3.521845,1.88162 1.277297,-1.14309 -2.309498,-1.93413 -3.236442,-2.47916 -0.0879,-0.0517 -0.20392,0.005 -0.305874,0.004 -0.186312,-0.003 -0.629814,-0.0251 -0.810019,-0.0335 -0.40318,-0.0525 -1.099236,0.0404 -1.451158,-0.20067 -0.0374,-0.0256 -0.06344,-0.0648 -0.09516,-0.0972 1.093443,0.63851 2.186887,1.277 3.28033,1.9155 -0.08928,-0.0563 -0.0678,-0.0256 -0.11217,-0.1406 -0.01913,-0.0496 -0.0052,-0.12455 -0.0513,-0.15106 -1.160389,-0.66734 -2.336057,-1.30968 -3.5325,-1.91 -0.05033,-0.0252 -0.105794,0.0387 -0.158689,0.058 -0.323009,0.17137 -0.618974,0.38523 -0.889961,0.62967 -0.163814,0.11004 -0.410646,0.46008 -0.594503,0.51181 -0.02513,0.007 -0.05144,-0.009 -0.07716,-0.0132 -0.69713,-1.17822 -0.09024,-0.11952 3.28777,1.75329 0.03213,0.0178 -0.06993,-0.0244 -0.101073,-0.0439 -0.128979,-0.0807 -0.16727,-0.20409 -0.214913,-0.33987 -0.07124,-0.22336 -0.0011,-0.41623 0.10369,-0.61272 0.1466,-0.12481 0.287025,-0.25192 0.419071,-0.39219 0.141869,-0.17556 0.313928,-0.30721 0.517035,-0.403 0.243031,-0.0515 0.491808,-0.0543 0.73908,-0.0572 0.272774,0.002 0.545549,10e-4 0.818319,0.004 0.192302,-0.009 0.406376,-0.0135 0.588624,-0.0859 0.104642,-0.0416 0.201908,-0.10001 0.305347,-0.14451 0.283607,-0.16741 0.59848,-0.21452 0.920554,-0.23995 0.523574,-0.0345 1.045089,-0.0496 1.56532,0.0249 0.463074,0.0888 0.900981,0.27913 1.33245,0.46542 0.206489,0.0912 0.436155,0.10471 0.647369,0.1787 0.390853,0.13691 -0.134106,-0.0203 0.275979,0.0976 0.241382,0.20393 0.550053,0.29493 0.856946,0.34349 0.346657,0.0512 0.543258,0.0487 0.785656,-0.22236 0.129318,-0.19794 0.200025,-0.44985 0.152099,-0.68776 -0.01294,-0.0642 -0.04547,-0.12279 -0.06821,-0.18418 -0.908764,-1.19135 -0.229806,-0.33788 -3.613864,-2.10515 -0.05129,-0.0268 -0.113109,0.0273 -0.16601,0.0508 -0.126304,0.056 -0.245211,0.15364 -0.351372,0.2405 -0.251151,0.28143 -0.433565,0.61573 -0.659437,0.91672 -0.215868,0.2669 -0.431027,0.54756 -0.703636,0.75939 -0.02894,0.0122 -0.0557,0.0324 -0.08683,0.0365 -0.01923,0.003 -0.07259,-0.0268 -0.05546,-0.0177 0.431663,0.22958 4.268296,0.78732 3.367977,1.95889 -0.04175,0.0543 0.07219,-0.11685 0.114906,-0.17042 0.300532,-0.26311 0.62086,-0.3644 1.006483,-0.42638 0.06388,0.007 0.128336,0.01 0.191632,0.0206 0.100195,0.0174 0.286711,0.066 0.377905,0.11568 0.05858,0.0319 0.219545,0.15104 0.161406,0.11832 -2.990204,-1.68245 -4.199324,-2.50378 -2.961227,-1.67042 0.408686,0.33079 0.689935,0.77155 0.927356,1.23337 0.699395,1.33897 2.487708,3.20009 3.971597,2.51762 0.21322,-0.0992 0.364691,-0.2699 0.500277,-0.45641 0.0021,-0.003 0.106024,-0.13093 0.128802,-0.12707 0.0264,0.004 0.02548,0.0472 0.04069,0.0693 0.01823,0.0265 0.08768,0.0912 0.05942,0.0759 -1.066196,-0.57689 -4.242977,-2.34741 -3.180559,-1.76359 0.292085,0.30233 0.374936,0.71715 0.437727,1.11804 0.04647,0.37643 0.05098,0.75542 0.04588,1.13407 0.0245,0.36709 -0.04066,0.72008 -0.157596,1.06601 -0.0177,0.0472 -0.03558,0.0944 -0.05309,0.1417 -0.01638,0.0442 -0.03111,0.0891 -0.04857,0.13288 -0.01209,0.0303 -0.02021,0.0635 -0.04003,0.0894 -0.0056,0.007 -0.01648,-0.0302 -0.0083,-0.0261 3.475678,1.76097 4.478396,2.68379 3.446626,1.74402 -0.02686,-0.11732 -0.05942,-0.23347 -0.08059,-0.35194 -0.05561,-0.31123 -0.101534,-0.76558 -0.135335,-1.07225 -0.06864,-0.62281 -0.125105,-1.24612 -0.180197,-1.87025 -0.06714,-0.77548 -0.107037,-1.55311 -0.122706,-2.33127 0.0042,-0.40173 -0.03963,-0.80135 -0.06049,-1.20203 -0.07389,-1.62988 -0.871995,-1.12415 -3.611721,-2.23656 -0.108088,-0.0439 -0.1294,0.19456 -0.184716,0.29727 -0.0646,0.11993 -0.11629,0.24639 -0.174435,0.36958 -0.312301,0.83978 -0.560834,1.70168 -0.88456,2.53774 -0.250836,0.64781 -0.128376,0.45206 -0.471289,0.8473 -0.537353,-1.35299 0.08979,0.3358 3.23165,1.54945 0.145306,0.0561 -0.04535,-0.30931 -0.0456,-0.46508 -0.0011,-0.6014 0.130353,-1.19775 0.254546,-1.78219 0.0747,-0.28333 0.103729,-0.44566 0.212251,-0.70127 0.02516,-0.046 0.0503,-0.0921 0.07546,-0.13807 0.0071,0.0134 0.01423,0.0534 0.02138,0.0401 0.07922,-0.14798 0.05456,-0.21235 0.04597,-0.36959 -0.113781,-1.87984 -0.05038,-0.88731 -3.620505,-2.55564 -0.07435,-0.0347 -0.142714,0.0812 -0.215858,0.11842 -0.0613,0.0312 -0.124822,0.0578 -0.187232,0.0867 -0.05182,0.0265 -0.11272,0.11901 -0.155467,0.0795 -0.04796,-0.0443 -0.02519,-0.224 0.03242,-0.19324 1.13044,0.60376 2.162569,1.38224 3.299867,1.97297 0.07258,0.0377 0.01458,-0.16318 0.02965,-0.24356 0.04827,-0.25727 0.08821,-0.35616 0.166852,-0.60035 0.54189,-1.62472 -0.22837,-0.87606 -3.493061,-2.20514 -0.09587,-0.039 -0.144288,0.1485 -0.218448,0.22072 -0.247973,0.24147 -0.136761,0.17354 -0.389258,0.27345 0.139145,-1.50132 -0.06627,0.0345 3.328546,1.76323 0.07803,0.0397 0.0316,-0.17276 0.05851,-0.25609 0.07829,-0.24249 0.198247,-0.47315 0.331798,-0.68902 -1.159703,-0.66032 -2.27227,-1.41133 -3.479109,-1.98096 -0.09595,-0.0453 -0.136874,0.16226 -0.208791,0.24028 -0.07855,0.0852 -0.156477,0.17149 -0.24244,0.24921 -0.07409,0.067 -0.149188,0.13554 -0.236577,0.18391 -0.04319,0.0239 -0.188434,0.003 -0.145492,0.0276 1.122812,0.63648 2.276417,1.21704 3.414625,1.82555 -0.0082,-0.0377 -0.03125,-0.0751 -0.02458,-0.1131 0.03968,-0.2261 0.150059,-0.42437 0.239726,-0.6315 0.0308,-0.0711 0.152808,-0.17241 0.08817,-0.21519 -3.425204,-2.26685 -2.498379,-2.90778 -3.805894,-1.74611 -0.344117,0.29334 -0.485336,0.42259 -0.852204,0.69793 -0.138486,0.10395 -0.26588,0.22915 -0.423522,0.30078 -0.09362,0.0425 -0.395734,-0.0207 -0.306911,0.0311 3.45304,2.01409 3.762989,2.81815 3.210078,1.54497 0.03011,-0.12231 0.05142,-0.24713 0.09033,-0.36693 0.08782,-0.27045 0.17597,-0.43322 0.298247,-0.67923 0.02735,-0.055 0.134599,-0.13171 0.08277,-0.16474 -3.455382,-2.20187 -2.610117,-2.98883 -3.720928,-1.69984 -0.327115,0.33007 -0.630013,0.68962 -0.980485,0.99626 -0.07013,0.0614 -0.131228,0.16928 -0.224382,0.16676 -0.0576,-0.002 -0.04076,-0.19995 0.0099,-0.17256 1.155602,0.62438 2.259769,1.33959 3.389654,2.00938 0.172556,-0.32423 0.380156,-0.63252 0.62399,-0.90787 0.05347,-0.0604 0.24347,-0.12902 0.173321,-0.16881 -3.536175,-2.00567 -2.970612,-2.85161 -3.687985,-1.20306 -0.274013,0.60129 -0.616736,1.16631 -0.936003,1.74342 -0.159446,0.28821 -0.282893,0.51234 -0.349938,0.82944 1.177324,0.63746 2.318015,1.3478 3.531973,1.91237 0.07802,0.0363 0.121547,-0.122 0.177898,-0.18702 0.188415,-0.21739 0.359392,-0.455 0.490384,-0.71081 -1.177009,-0.62143 -2.333202,-1.284 -3.531031,-1.86429 -0.01961,-0.01 -0.216847,0.41005 -0.179734,0.43281 3.455601,2.11951 2.631075,2.93207 3.668792,1.76383 0.373644,-0.47968 0.662395,-1.01618 0.884049,-1.58066 0.09153,-0.30001 0.284806,-0.7596 0.144315,-1.07386 -0.04116,-0.0921 -0.110451,-0.16879 -0.165675,-0.25319 -2.475812,-1.42078 -2.969424,-2.2616 -5.210764,-2.11371 -0.458079,0.0591 -0.897184,0.2036 -1.339242,0.33125 -0.41347,0.10827 -0.762807,0.33288 -1.055971,0.63851 -0.269028,0.25636 -0.448725,0.57829 -0.646596,0.88769 -0.247322,0.33574 -0.385517,0.72993 -0.496901,1.12819 -0.09926,0.33462 -0.109355,0.6819 -0.123129,1.02767 -0.05313,1.76742 -0.40431,0.32201 3.506727,2.19867 -0.0199,-0.41743 -0.03171,-0.83579 -0.02524,-1.25371 0.01167,-0.36706 0.04064,-0.73649 0.126561,-1.09471 0.04804,-0.20031 0.111067,-0.36158 0.179824,-0.55617 0.266242,-0.60346 0.647637,-1.14524 1.041442,-1.67081 0.367433,-0.46823 0.813584,-0.85709 1.291614,-1.20733 0.308015,-0.20896 0.626589,-0.41554 0.987626,-0.5201 0.238588,-0.0691 0.401463,-0.0861 0.648253,-0.12454 0.432917,-0.0357 0.972902,-0.12258 1.394037,0.0275 0.06776,0.0242 0.13054,0.0605 0.195813,0.0908 0.06446,0.0338 0.131384,0.0633 0.193392,0.10137 0.06674,0.041 0.260149,0.17412 0.191997,0.13551 -1.037545,-0.58796 -2.062784,-1.19747 -3.101115,-1.78404 -0.07676,-0.0434 0.145558,0.0997 0.215199,0.15375 0.212296,0.16479 0.224187,0.18879 0.410946,0.37715 0.311525,0.31761 0.597815,0.65642 0.85576,1.01861 0.20315,0.25818 0.41243,0.51121 0.601956,0.77972 0.226753,0.33297 0.39751,0.69884 0.571654,1.06085 0.146169,0.30941 0.24952,0.63657 0.36227,0.95915 0.134649,0.35963 0.251544,0.72563 0.387016,1.0849 0.592543,1.43228 2.394694,1.69025 3.739153,2.42571 0.107365,0.0587 0.247277,-0.0503 0.323739,-0.0912 0.399568,-0.30599 0.460023,-0.6307 0.517588,-1.10715 0.04417,-0.51899 0.04029,-1.04022 0.04592,-1.5606 0.0056,-0.43969 1.83e-4,-0.87944 0.0069,-1.31912 0.03692,-0.45226 -0.07363,-0.80994 -0.247782,-1.21876 -0.190743,-0.43911 -0.525873,-0.78848 -0.838364,-1.14281 -0.357926,-0.4366 -0.772811,-0.81582 -1.214239,-1.16527 -1.417217,-1.01285 -2.922667,-1.91082 -4.498459,-2.65603 -0.337653,-0.15228 -0.70191,-0.22593 -1.057542,-0.32147 -0.363609,-0.0977 -0.722387,-0.19059 -1.091319,-0.26651 -0.514445,-0.11073 -1.038365,-0.11995 -1.561576,-0.12758 -0.398992,0.007 -0.802405,-0.0326 -1.199177,0.0158 -0.243226,0.0539 -0.488569,0.16637 -0.693166,0.31104 -0.131373,0.0929 -0.248581,0.20436 -0.373832,0.30536 -0.41905,0.38803 -0.83752,0.78075 -1.225341,1.20057 -0.316865,0.37773 -0.603589,0.78077 -0.836829,1.21523 -0.230836,0.34137 -0.367573,0.72921 -0.507209,1.11342 -0.146847,0.37534 -0.22107,0.77089 -0.257302,1.17063 -0.04007,0.38146 -0.03695,0.69332 0.06819,1.06487 0.119746,0.39044 0.239324,0.7811 0.351851,1.17373 0.08258,0.35252 0.190805,0.69734 0.296035,1.04343 0.148809,0.39511 0.338193,0.77367 0.517974,1.15537 0.02008,0.0236 0.1958,0.46671 0.237305,0.4161 0.01884,-0.023 0.02371,-0.0545 0.03557,-0.0817 0.454575,-1.38387 -0.01741,-0.14106 3.384918,1.67038 0.05987,0.0319 -0.09678,-0.0955 -0.138949,-0.14865 -0.169486,-0.21349 -0.299471,-0.45806 -0.432832,-0.69451 -0.182874,-0.37367 -0.334279,-0.76165 -0.503576,-1.14164 -0.147,-0.30177 -0.29346,-0.59967 -0.407781,-0.91568 -0.157273,-0.46614 -0.231942,-0.95096 -0.282313,-1.43839 -0.05512,-0.65719 0.283506,-1.19232 0.623266,-1.72578 0.266078,-0.37105 0.579461,-0.72211 0.97463,-0.9595 0.249798,-0.15007 0.401777,-0.20365 0.670917,-0.31854 0.60435,-0.27037 1.248121,-0.43035 1.879878,-0.62076 0.584795,-0.15535 1.195456,-0.19083 1.797994,-0.17488 0.29233,0.0383 0.5852,0.0982 0.861785,0.20305 1.062741,0.4028 4.230304,2.35007 -2.673345,-1.56007 0.395714,0.28854 0.731002,0.67249 0.953006,1.11118 0.04858,0.096 0.08646,0.19703 0.129683,0.29555 0.236378,0.65789 0.241046,1.31214 0.06722,1.98191 -0.01061,0.0438 -0.06979,0.10711 -0.03181,0.13128 1.578579,1.00476 2.993517,3.30644 3.569751,1.74322 0.07472,-0.2027 0.08898,-0.52551 0.117866,-0.74269 0.0557,-0.47167 0.103606,-0.94665 0.02471,-1.41745 -0.09085,-0.36044 -0.295791,-0.66936 -0.522583,-0.95762 -0.211283,-0.22957 -0.353772,-0.51638 -0.562513,-0.74725 -0.05161,-0.0571 -0.109812,-0.10782 -0.164719,-0.16173 -1.811972,-1.11854 -2.535896,-2.09979 -4.217119,-1.99564 -0.295101,0.0183 -0.416864,0.0279 -0.698135,0.12019 -0.106013,0.0348 -0.206661,0.0842 -0.309994,0.1263 -0.411906,0.19574 -0.798885,0.50616 -1.012534,0.91817 -0.04153,0.0801 -0.07097,0.16589 -0.10646,0.24884 -0.179827,0.53521 -0.142322,1.07721 0.09019,1.59087 0.05589,0.12347 0.126746,0.23959 0.190122,0.35938 0.233818,0.36079 0.484407,0.76471 0.872008,0.98458 1.561293,0.88563 2.53722,2.16735 4.147638,1.98339 0.14337,-0.0164 0.282477,-0.0592 0.423714,-0.0887 0.245893,-0.0985 0.453647,-0.15045 0.646211,-0.34415 0.225255,-0.22658 0.382002,-0.57919 0.452821,-0.88718 0.01908,-0.0829 0.02424,-0.16847 0.03635,-0.25271 -0.0082,-0.085 -0.0038,-0.17216 -0.02442,-0.25503 -0.02524,-0.10145 -0.138416,-0.34962 -0.239606,-0.41102 -0.290793,-0.17643 -2.397713,-2.1377 -3.809749,-2.05675 -0.106407,0.006 -0.211267,0.0284 -0.316902,0.0426 -0.399534,0.0964 -0.775303,0.24992 -1.088175,0.52121 -0.052,0.0451 -0.105929,0.0899 -0.146561,0.14545 -0.03957,0.0541 -0.06066,0.11956 -0.09099,0.17934 1.124133,0.74148 2.21071,1.5433 3.372401,2.22443 0.07705,0.0452 0.165229,-0.0679 0.247896,-0.10174 0.273777,-0.11203 0.581583,-0.209 0.82006,-0.39052 0.08105,-0.0617 0.146841,-0.14121 0.220263,-0.21181 0.04847,-0.0735 0.106053,-0.14178 0.145402,-0.22056 0.607454,-1.21619 -2.148798,-1.68255 -3.332568,-2.351 -0.02252,-0.0127 -0.341378,0.23517 -0.355661,0.24886 -0.05563,0.0533 -0.100255,0.11708 -0.150383,0.17562 -0.0882,0.12983 -0.157422,0.20826 -0.200229,0.36219 -0.366887,1.31928 2.183312,1.67047 3.38351,2.32972 0.01103,0.006 0.39433,-0.25377 0.408755,-0.26343 0.214368,-0.17406 0.599927,-0.61452 0.602168,-0.90813 7.93e-4,-0.0993 -0.0348,-0.19555 -0.0522,-0.29333 -1.219539,-0.63444 -2.397101,-1.35708 -3.658611,-1.90332 -0.140859,-0.061 -0.295404,0.0836 -0.442476,0.12754 -0.365778,0.10931 -0.650139,0.19577 -1.006591,0.33486 -0.364503,0.14222 -0.51453,0.22242 -0.857901,0.38839 -0.590878,0.31066 -1.137401,0.69878 -1.609627,1.17009 -0.390713,0.42788 -0.676087,0.91075 -0.906589,1.4386 -0.245751,0.56529 -0.2779,1.18889 -0.333743,1.79488 -0.03126,0.43645 -0.086,0.779 0.08487,1.19223 1.013854,1.49025 2.947239,2.49613 4.688308,2.13505 0.52854,-0.26123 0.642086,-0.75926 0.759045,-1.2905 0.165621,-0.62833 0.29723,-1.26446 0.459343,-1.89374 0.228764,-0.98791 0.771898,-1.84464 1.315519,-2.6846 0.360328,-0.4574 0.651848,-1.00511 1.115904,-1.37309 0.222123,-0.17614 0.336814,-0.20151 0.595328,-0.30688 0.440634,-0.13092 0.945409,-0.22863 1.38671,-0.0383 0.06689,0.0288 0.127186,0.071 0.190778,0.10658 1.242587,0.77555 -0.289084,-0.1837 -2.96885,-1.68843 -0.05788,-0.0325 0.108749,0.0768 0.157792,0.12148 0.146299,0.13344 0.251738,0.30081 0.354164,0.4677 0.130709,0.22646 0.228692,0.46957 0.333433,0.70877 0.06259,0.18709 0.06776,0.38548 0.07215,0.58079 0.0042,0.1512 -0.01971,0.30793 -0.07219,0.45039 -0.0065,0.0176 -0.03525,0.0663 -0.02698,0.0494 0.04293,-0.0876 0.08734,-0.17451 0.131017,-0.26177 4.834635,2.9921 3.415053,3.16712 3.283942,1.63358 -0.02758,-0.32262 -0.0466,-0.64604 -0.0747,-0.96872 -0.101212,-0.72521 -0.325978,-1.34916 -0.860941,-1.86993 -0.110297,-0.10737 -0.234845,-0.19906 -0.352267,-0.29858 -1.363011,-0.94678 -2.872279,-1.72355 -4.294005,-2.53923 -0.516561,-0.29636 -0.111143,-0.0404 -0.597034,-0.29897 -0.08847,-0.0471 -0.172321,-0.10235 -0.25848,-0.15352 1.019265,0.58605 2.037003,1.17476 3.057795,1.75815 0.07555,0.0432 -0.148492,-0.0908 -0.221951,-0.13746 -0.163798,-0.10403 -0.315053,-0.23662 -0.481984,-0.33435 -1.161983,-0.68025 -2.32942,-1.35115 -3.494132,-2.02672 -0.339032,-0.13045 -0.687766,-0.22759 -1.048025,-0.27528 -0.303014,-0.0423 -0.608272,-0.0346 -0.913011,-0.0272 -0.26901,0.01 -0.538665,-0.0112 -0.80609,0.0273 -0.01894,0.003 -0.366853,0.0694 -0.395441,0.0749 -0.332989,0.0737 -0.608955,0.25044 -0.848858,0.48596 -0.290618,0.2833 -0.53922,0.60331 -0.772885,0.93405 -0.100692,0.1893 -0.253886,0.34229 -0.375597,0.51631 -0.10968,0.15682 -0.200509,0.33059 -0.292015,0.49832 -0.169757,0.33299 -0.326456,0.6741 -0.442616,1.02967 -0.104172,0.31457 -0.170016,0.6345 -0.211334,0.96262 -0.03281,0.30966 -0.04404,0.62238 -0.03652,0.93364 0.0016,0.39205 0.0067,0.78395 0.01577,1.17592 0.03213,0.35202 0.09939,0.7068 0.210372,1.04306 0.09947,0.32365 0.276977,0.60898 0.47869,0.87749 1.042755,1.28608 2.631548,2.1146 4.220895,2.55446 0.164899,0.0222 0.343167,0.073 0.440584,-0.11417 0.05022,-0.0965 0.09526,-0.20265 0.09753,-0.31139 0.0034,-0.16222 -0.177591,-0.29651 -0.27038,-0.38906 -0.260342,-0.21407 -0.544804,-0.39926 -0.781603,-0.64108 -0.111027,-0.11338 -0.210778,-0.23987 -0.311537,-0.36203 -0.35956,-0.42036 -0.631113,-0.8939 -0.857133,-1.39596 -0.220734,-0.46948 -0.345059,-0.96937 -0.443103,-1.47606 -0.0645,-0.47269 -0.09449,-0.94936 -0.05816,-1.42527 0.0711,-0.47847 0.234019,-0.93783 0.391179,-1.3936 0.155369,-0.42151 0.379505,-0.82168 0.67728,-1.15865 0.0732,-0.0793 0.201076,-0.22764 0.293537,-0.29199 0.07044,-0.049 0.323448,-0.15075 0.383476,-0.17526 0.352486,-0.14387 0.238475,-0.0993 0.610886,-0.21749 0.581639,-0.17849 1.189104,-0.21347 1.792772,-0.23663 0.621895,-0.0144 1.242134,-0.0274 1.861084,0.041 0.498192,0.0709 1.011603,0.113 1.467475,0.34597 0.06722,0.0344 0.127606,0.0807 0.191407,0.12101 -5.931304,-2.97837 -3.740933,-2.31542 -2.70696,-1.50857 0.210765,0.16447 0.407557,0.34774 0.605259,0.52732 0.35643,0.33788 0.694176,0.69469 1.041331,1.04189 0.283376,0.30398 0.595201,0.57346 0.922004,0.82877 0.428387,0.34751 0.848098,0.70552 1.27258,1.05782 0.374922,0.33045 0.7714,0.63405 1.14333,0.96788 0.237998,0.20355 0.476906,0.41614 0.754161,0.56528 1.160758,0.80641 0.672332,0.47091 3.566398,2.01673 0.03435,0.0183 0.07363,-0.0255 0.109762,-0.0401 0.164346,-0.0661 0.197027,-0.13826 0.28733,-0.29639 0.137004,-0.34945 0.124923,-0.71277 0.09423,-1.07939 -0.04644,-0.44018 -0.203364,-0.85383 -0.368959,-1.26044 -0.282075,-0.60462 -0.655188,-1.16199 -1.0716,-1.6814 -0.298712,-0.35027 -0.646895,-0.65164 -1.018222,-0.92213 -0.109932,-0.0801 -0.217784,-0.16399 -0.335174,-0.23267 -1.196724,-0.70018 -2.404004,-1.38216 -3.606007,-2.07323 -0.585038,-0.29661 -1.194038,-0.53571 -1.802405,-0.77813 -0.461523,-0.16985 -0.891653,-0.28192 -1.378839,-0.34696 -0.45059,-0.0862 -0.899744,-0.16377 -1.356868,-0.2051 -0.07682,-0.005 -0.153879,-0.008 -0.230478,-0.0159 -0.06825,-0.007 -0.349356,-0.0511 -0.421968,-0.0598 -0.222941,-0.0266 -0.446913,-0.0304 -0.67106,-0.0372 -0.391981,0.0125 -0.784768,-0.0266 -1.176208,0.006 -0.08001,0.007 -0.424902,0.0541 -0.514636,0.0662 -0.403108,0.0841 -0.788233,0.24249 -1.164212,0.40761 -0.326675,0.10576 -0.608208,0.31003 -0.897059,0.49024 -0.254942,0.15176 -0.467847,0.36037 -0.699902,0.54244 -0.508238,0.39876 0.173165,-0.16053 -0.332166,0.25851 -0.203798,0.1992 -0.429749,0.38578 -0.60388,0.61336 -0.04836,0.0632 -0.196664,0.29443 -0.242739,0.36543 -0.153863,0.25501 -0.238151,0.54652 -0.291677,0.83793 -0.01267,0.069 -0.03422,0.13794 -0.03158,0.20802 0.0039,0.10508 0.03409,0.20753 0.05114,0.3113 0.798092,1.40064 2.534237,2.51637 4.153553,2.38511 0.157507,-0.0128 0.316677,-0.0278 0.468757,-0.0708 0.339485,-0.0958 1.046425,-0.43259 1.335466,-0.56333 1.145633,-0.52748 2.341152,-0.92949 3.571312,-1.20543 0.627165,-0.14068 0.859361,-0.1687 1.472266,-0.26637 0.799631,-0.0727 1.619578,-0.14465 2.418857,-0.0286 1.369785,0.7652 -2.030105,-1.14596 -3.048979,-1.71211 -0.04704,-0.0261 0.09347,0.0551 0.132631,0.092 0.137086,0.12917 0.181123,0.29909 0.228748,0.47336 0.221054,1.5668 -1.802773,-0.41279 3.576275,1.87327 0.04049,0.0172 -0.03763,-0.0796 -0.05509,-0.11995 -0.01947,-0.045 -0.03712,-0.0908 -0.05568,-0.13626 -1.151848,-1.817 -3.34305,-2.10614 -5.160423,-2.76821 -0.334552,-0.14315 -0.182869,-0.0634 -0.471413,-0.24025 -0.06031,-0.037 -0.242171,-0.1463 -0.180806,-0.11111 5.823635,3.33983 3.840107,2.46606 2.880775,1.58749 -0.251483,-0.26034 -0.491799,-0.53102 -0.730096,-0.80339 -1.027713,-1.20486 -2.556277,-1.87538 -4.009123,-2.48113 -0.350485,-0.12615 -0.733856,-0.11727 -1.102005,-0.12784 -0.437521,0.009 -0.853319,0.1007 -1.248429,0.28645 -0.408688,0.18171 -0.794319,0.41519 -1.1655,0.66375 -0.03953,0.0209 -0.07505,0.0525 -0.118584,0.0627 -0.02225,0.005 -0.05834,0.002 -0.06578,-0.0195 -0.01212,-0.0353 -0.01085,-0.12872 0.0213,-0.1098 4.901541,2.88512 2.879794,3.11424 3.379137,2.00904 0.09645,-0.27938 0.286162,-0.48533 0.506383,-0.67505 0.485024,-0.23959 1.026372,-0.35357 1.567336,-0.31577 0.138126,0.01 0.274735,0.0348 0.412102,0.0522 0.383675,0.0697 0.766522,0.14468 1.135364,0.27397 0.27387,0.096 0.535114,0.22563 0.803447,0.33556 0.249753,0.11772 0.159099,0.0692 0.385794,0.19726 0.05481,0.031 0.218496,0.1252 0.163915,0.0938 -1.066406,-0.61298 -4.249092,-2.47981 -3.199387,-1.83865 1.766414,1.07892 2.400829,1.42262 3.670311,2.1143 0.391967,0.20362 0.801394,0.36374 1.181624,0.58992 0.149815,0.10745 0.320336,0.17128 0.48451,0.2497 0.05635,0.0269 0.218321,0.12138 0.164198,0.0902 -1.055767,-0.60769 -4.221668,-2.43314 -3.16915,-1.81984 1.174506,0.68437 2.356747,1.35539 3.535121,2.03309 0.237093,0.11151 0.465344,0.2373 0.693841,0.3649 0.0786,0.0439 0.315505,0.17351 0.23745,0.12866 -3.189295,-1.83245 -4.00563,-2.49935 -2.890451,-1.61018 0.325353,0.27605 0.473827,0.53394 0.637215,0.915 0.0076,0.0106 0.0272,0.0196 0.02273,0.0318 -0.0498,0.13654 -0.467502,0.38059 -0.597175,0.43346 -0.05314,0.0217 -0.110035,0.0326 -0.165052,0.049 -1.26478,-0.73087 2.230249,1.13876 3.309609,1.77193 0.04242,0.0249 -0.04466,0.0955 -0.08825,0.11824 -0.02429,0.0127 0.0067,-0.0549 0.01611,-0.0806 0.04085,-0.11174 0.09416,-0.19219 0.153953,-0.29501 0.03042,-0.0394 0.04987,-0.0905 0.09125,-0.1181 0.0885,-0.0591 0.167018,0.27471 0.03493,0.20601 -1.123767,-0.58456 -2.173475,-1.30288 -3.284365,-1.91155 -0.0521,-0.0285 0.06319,0.10166 0.08321,0.15759 0.02389,0.0667 0.03162,0.13823 0.04742,0.20734 0.03019,0.18562 0.05071,0.37332 0.09951,0.55543 0.369441,1.3788 2.36383,2.70827 3.652711,2.05701 1.330729,-0.54057 1.37963,0.40819 -3.054797,-1.82558 -0.07161,-0.0361 0.131302,0.0962 0.179067,0.1606 0.126944,0.17114 0.181322,0.39267 0.24633,0.58935 0.07051,0.24887 0.09484,0.50852 0.16774,0.75674 0.014,0.0476 0.0066,0.11617 0.05006,0.14024 3.53536,1.95985 2.599457,2.78496 3.699057,1.70385 0.213791,-0.17253 0.277633,-0.47352 0.498012,-0.63418 0.06819,0.0146 0.03943,-0.004 0.08095,0.0622 -1.128299,-0.6161 -2.254369,-1.2363 -3.384899,-1.8483 -0.03151,-0.0171 0.06747,0.033 0.08704,0.0631 0.05469,0.0839 0.07844,0.27854 0.0941,0.3645 0.04588,0.40449 0.04235,0.81348 0.02355,1.21958 -0.05213,0.46017 -0.106592,0.91946 -0.140202,1.38168 -0.03364,0.51521 -0.100272,1.02729 -0.131826,1.54251 -0.08373,0.71779 -0.174559,1.43506 -0.27862,2.15027 -0.103317,0.54629 -0.191849,1.09495 -0.318005,1.6366 -0.154485,0.52639 -0.262319,1.06313 -0.374071,1.59966 -0.10755,0.5052 -0.23346,1.0028 -0.299381,1.51556 -0.05576,0.37512 -0.122923,0.74879 -0.204137,1.11923 -0.07344,0.29025 -0.120134,0.58451 -0.148786,0.88218 -0.02307,0.23253 -0.01998,0.46614 -0.02133,0.69944 0.01013,0.26013 0.0045,0.52055 0.0016,0.78077 -0.0093,0.12593 0.0084,0.25426 -0.0053,0.37994 -0.0011,0.009 -0.005,0.0182 -0.0075,0.0273 0.03406,-0.0874 0.06811,-0.17472 0.102171,-0.26207 4.808538,2.76702 3.580739,2.8842 3.043674,1.32573 -0.164555,-0.47751 -0.290123,-0.96611 -0.415271,-1.45494 -0.219295,-0.89004 -0.458399,-1.77517 -0.732301,-2.65009 -0.153448,-0.50927 -0.386966,-0.98415 -0.648319,-1.44498 -0.161197,-0.32323 -0.410197,-0.58642 -0.601411,-0.89022 -0.19971,-0.29829 -0.416721,-0.58432 -0.618009,-0.88159 -0.282032,-0.39919 -0.630724,-0.7459 -1.003702,-1.05955 -1.358879,-1.10411 -2.392897,-1.51699 -4.245176,-2.58188 -0.16728,-0.11915 -0.356084,-0.15746 -0.548746,-0.20932 -0.50357,-0.13553 0.222655,0.0348 -0.302678,-0.0845 -0.394718,-0.0941 -0.795403,-0.16077 -1.191588,-0.24958 -0.472048,-0.11929 -0.957974,-0.15879 -1.442246,-0.18945 -0.472448,-0.0157 -0.945369,5.3e-4 -1.418026,0.001 -0.471266,2.7e-4 -0.942491,-0.002 -1.413704,-0.01 -0.191584,0.0141 -0.388567,-0.0283 -0.579805,-0.01 -0.09381,0.009 -0.185433,0.034 -0.278617,0.0482 -0.04443,0.005 -0.08853,0.0162 -0.133302,0.0164 -0.0678,2.7e-4 -0.138131,-0.0162 -0.192064,-0.0598 -0.02439,-0.0197 -0.08729,-0.0879 -0.05994,-0.0726 3.46261,1.94262 4.571926,2.18219 3.258037,1.89001 -0.02286,-0.0209 -0.05074,-0.0374 -0.06858,-0.0627 -0.06214,-0.0881 -0.120836,-0.26459 -0.150363,-0.35372 -0.102949,-0.31076 -0.17897,-0.62721 -0.252479,-0.94585 -0.11113,-0.54573 -0.232629,-1.08844 -0.307633,-1.64051 -0.04337,-0.37597 -0.04988,-0.75449 -0.04446,-1.13247 0.0075,-0.32364 -0.0062,-0.64726 -0.0057,-0.97092 -0.0096,-0.37426 0.007,-0.74835 0.0024,-1.1226 -0.01556,-0.34297 0.07984,-0.66863 0.16016,-0.99727 0.07197,-0.28077 0.181864,-0.55144 0.342583,-0.79263 0.30622,-0.50561 0.718521,-0.9452 1.162891,-1.33182 0.474057,-0.39876 0.863727,-0.50993 1.462942,-0.57538 0.564261,-0.0905 1.130332,-0.15414 1.701102,-0.18268 0.02125,-7.9e-4 0.364783,-0.0127 0.402949,-0.01 0.04436,0.003 0.168598,0.0503 0.130681,0.0271 -1.111142,-0.68173 -2.241952,-1.33094 -3.356875,-2.00647 -0.01005,-0.006 -0.0069,-0.0225 -0.01037,-0.0337 -0.05306,0.0409 -0.106117,0.0817 -0.159176,0.1226 -0.07133,0.047 -0.14327,0.0931 -0.213982,0.14099 -0.335754,0.23335 -0.125344,0.0889 -0.459994,0.31454 -0.117208,0.079 -0.327205,0.2144 -0.428884,0.31236 -0.09483,0.0914 -0.176205,0.19573 -0.264309,0.2936 -0.106145,0.11849 -0.218424,0.23176 -0.318439,0.35547 -0.625279,0.77346 -1.146381,1.67175 -1.598663,2.55524 -0.410138,0.8003 -0.57749,1.68576 -0.704897,2.56736 -0.09076,0.68163 -0.146005,1.36769 -0.161359,2.05509 -0.009,0.41163 -0.03651,0.82334 -0.02791,1.23512 -0.01148,0.41418 0.02923,0.82621 0.08275,1.23626 0.04983,0.34604 0.06968,0.69493 0.117467,1.04112 0.06755,0.41143 0.152167,0.82037 0.239972,1.22798 0.111942,0.38119 0.193003,0.77013 0.286692,1.156 0.06599,0.39683 0.145058,0.79137 0.212045,1.18802 0.08532,0.44729 0.181004,0.89322 0.282408,1.33727 0.09141,0.4087 0.213373,0.80923 0.318154,1.21444 0.07868,0.31329 0.150418,0.62856 0.206856,0.94665 0.0027,0.0265 -0.0078,0.1009 0.0081,0.0795 0.03719,-0.0503 0.04245,-0.11763 0.06367,-0.17645 1.13628,0.59338 2.243148,1.24686 3.408842,1.78015 0.08088,0.037 -0.05694,-0.16886 -0.07648,-0.25564 -0.05666,-0.25162 -0.07677,-0.50103 -0.105524,-0.75698 -0.05556,-0.71085 -0.07556,-1.42548 0.01847,-2.13326 0.120808,-0.56635 0.310642,-1.11674 0.500771,-1.6631 0.164045,-0.54177 0.30149,-1.09129 0.46972,-1.632 0.0836,-0.21698 0.135046,-0.44417 0.203362,-0.66582 0.01363,-0.0442 0.02658,-0.089 0.04643,-0.13083 0.0053,-0.0111 0.03818,-0.0189 0.02733,-0.0246 -1.159251,-0.60814 -2.329077,-1.1959 -3.493617,-1.79385 -0.03732,0.27751 -0.139179,0.54222 -0.26008,0.79313 0,0 3.428653,1.91756 3.428653,1.91756 v 0 c 0.100058,-0.29147 0.200949,-0.58377 0.326147,-0.86544 -4.229066,-2.42727 -3.097498,-3.09642 -3.667109,-1.08566 -0.162163,0.53878 -0.30389,1.0832 -0.472144,1.62002 -0.182491,0.5741 -0.370432,1.14867 -0.499134,1.73757 -0.02024,0.11642 -0.04603,0.23201 -0.06069,0.34926 -0.07807,0.62449 0.01963,1.25187 0.03219,1.87682 0.0096,0.25126 0.02177,0.50243 0.02998,0.75374 0.0029,0.0901 -0.06919,0.22014 0.0057,0.27023 1.123133,0.75129 3.17717,3.13925 3.603395,1.85699 0.01333,-0.0401 -0.0029,-0.0844 -0.0043,-0.12664 -0.05646,-0.33302 -0.138779,-0.66116 -0.2158,-0.98968 -0.0691,-0.25155 -0.03612,-0.12372 -0.09863,-0.38355 -0.07542,-0.27808 -0.193066,-0.54421 -0.232957,-0.832 -0.120809,-0.43132 -0.189961,-0.8746 -0.301239,-1.30832 -0.06194,-0.40136 -0.119637,-0.80231 -0.19367,-1.20152 -0.04998,-0.26466 -0.123452,-0.52301 -0.180554,-0.78601 -0.01497,-0.069 -0.02093,-0.13984 -0.03743,-0.20849 -0.0149,-0.0619 -0.03771,-0.12164 -0.05657,-0.18245 -0.133892,-0.37885 -0.166137,-0.77919 -0.250491,-1.17061 -0.04343,-0.35161 -0.08146,-0.704 -0.135025,-1.05426 -0.05963,-0.39151 -0.108246,-0.78312 -0.09047,-1.18033 0.006,-0.41801 -0.02656,-0.83576 -0.02535,-1.25386 0.0064,-0.68118 0.0031,-1.36404 0.085,-2.04164 0.114835,-0.84877 0.257829,-1.70013 0.602602,-2.49092 0.459999,-1.02917 1.028631,-2.02353 1.908053,-2.75417 0.447641,-0.35163 0.908789,-0.68716 1.400255,-0.97576 0.01228,-0.008 0.516316,-0.31018 0.429585,-0.37515 -2.725438,-2.04176 -2.181664,-2.25495 -3.872254,-2.06827 -0.571306,0.0632 -1.14205,0.13148 -1.711314,0.21118 -0.212807,0.0426 -0.339027,0.0603 -0.546076,0.13319 -0.385308,0.13561 -0.704252,0.38468 -1.009867,0.64902 -0.452573,0.42559 -0.901483,0.86314 -1.270204,1.36514 -0.206859,0.27749 -0.344204,0.58144 -0.423495,0.91982 -0.08242,0.35798 -0.195498,0.7086 -0.198056,1.08036 -0.0049,0.37445 0.0114,0.74878 5.29e-4,1.12322 -7.94e-4,0.32251 -0.01789,0.64496 -0.0092,0.96747 0.01122,0.39755 0.01802,0.79563 0.0598,1.19147 0.03003,0.25913 0.06967,0.51601 0.124302,0.77134 0.146576,0.68498 -0.01675,-0.13282 0.148722,0.57995 0.02601,0.11206 0.0443,0.22577 0.06644,0.33865 0.08983,0.49006 0.213185,0.97286 0.284401,1.46638 0.391697,1.54122 2.497396,2.33429 3.973652,2.0672 0.269275,-0.0214 0.541192,-2.6e-4 0.811215,-0.0169 0.460423,-0.008 0.920869,-0.0128 1.381371,-0.0135 0.47651,2.6e-4 0.953186,0.007 1.428772,0.0395 0.466137,0.0339 0.927245,0.10538 1.38131,0.21764 0.4094,0.0912 0.818314,0.18483 1.221745,0.29974 0.0978,0.0333 0.197858,0.0603 0.29405,0.0981 0.178586,0.07 0.336354,0.18367 0.509836,0.26437 -1.07642,-0.62273 -2.153351,-1.24458 -3.229263,-1.86819 -0.04752,-0.0275 0.09563,0.0541 0.144063,0.08 0.05174,0.0277 0.10687,0.0493 0.156419,0.0808 0.180544,0.11456 0.316587,0.28545 0.505251,0.38906 0.384114,0.26845 0.728353,0.57892 1.030123,0.93878 0.204687,0.29134 0.386774,0.59869 0.614201,0.87405 0.276815,0.38859 -0.07249,-0.11522 0.191117,0.31159 0.09309,0.15072 0.221316,0.26762 0.327948,0.40645 0.03739,0.0487 0.06739,0.1026 0.101082,0.1539 0.274973,0.45975 0.581924,0.90125 0.757399,1.4133 0.332792,0.86367 0.581204,1.75909 0.821316,2.65215 0.111078,0.4776 0.208445,0.95806 0.319093,1.43568 0.02551,0.11009 0.05833,0.21846 0.08162,0.32904 0.01865,0.0886 -0.03043,0.21661 0.04412,0.26795 1.112025,0.76578 2.295435,1.42234 3.443152,2.13352 0.07052,-0.0772 0.148905,-0.14782 0.211564,-0.2315 0.113212,-0.15118 0.05302,-0.37398 0.06396,-0.5454 -0.0036,-0.25997 -0.0104,-0.52013 -0.0011,-0.78004 -0.0013,-0.22628 2.65e-4,-0.45259 0.0031,-0.67886 0.01053,-0.28278 0.03884,-0.56462 0.104349,-0.84058 0.08327,-0.38625 0.143227,-0.77792 0.191064,-1.17001 0.05112,-0.5061 0.158118,-1.00114 0.269351,-1.497 0.0975,-0.53282 0.22348,-1.05945 0.375288,-1.57948 0.140171,-0.55775 0.207153,-1.12583 0.289578,-1.69437 0.0979,-0.7176 0.195705,-1.4351 0.298011,-2.15197 0.08554,-0.50991 0.136932,-1.02301 0.184661,-1.53767 0.02223,-0.46046 0.06806,-0.91889 0.145547,-1.3736 0.0021,-0.022 0.03921,-0.39176 0.04002,-0.41863 0.0087,-0.28773 -0.04009,-0.57682 -0.03456,-0.86469 -0.0056,-0.14536 -0.0094,-0.61407 -0.02167,-0.62167 -2.020189,-1.25256 -2.552531,-2.83353 -3.710088,-1.81834 -0.160946,0.18554 -0.247063,0.42825 -0.447691,0.57483 -1.283896,-0.37572 0.265501,0.0734 3.291435,1.85664 0.04146,0.0244 -0.09822,0.0299 -0.143677,0.0141 -0.05367,-0.0187 -0.100917,-0.0611 -0.130651,-0.1095 -0.0864,-0.1407 -0.129368,-0.44204 -0.158271,-0.58645 -0.07285,-0.33145 -0.071,-0.34876 -0.162708,-0.66806 -0.02684,-0.0935 -0.0027,-0.22836 -0.08584,-0.27883 -7.108529,-4.31626 -2.086502,-1.94084 -3.792696,-1.92338 -0.935064,-0.98738 -0.134438,-0.13075 3.237317,1.89315 0.0293,0.0176 -0.06807,-0.0155 -0.09656,-0.0344 -0.153736,-0.1017 -0.151297,-0.30149 -0.18687,-0.46194 -0.0076,-0.0776 -0.01672,-0.15516 -0.02291,-0.23294 -0.0061,-0.0771 0.04942,-0.1874 -0.01408,-0.23155 -1.200401,-0.83473 -2.858394,-3.26377 -3.8116,-1.74974 -0.04628,0.0739 -0.470189,0.74836 -0.402117,0.79202 3.250666,2.08494 2.357853,2.52286 3.647737,1.82083 0.329459,-0.18887 0.792099,-0.45652 0.97745,-0.79873 0.03959,-0.0731 0.04867,-0.15897 0.073,-0.23845 -0.215046,-0.52783 0.112381,0.26702 -0.137917,-0.30867 -0.127757,-0.29385 -0.233913,-0.55786 -0.480272,-0.78047 -1.247828,-1.32008 -3.092066,-1.89521 -4.652507,-2.79266 7.132645,4.12444 0.997172,0.57471 -0.387652,-0.21772 -0.211817,-0.12121 -0.437636,-0.22097 -0.647046,-0.34751 -0.3898,-0.18979 -0.790308,-0.35848 -1.161788,-0.58414 -0.06841,-0.0401 -0.273884,-0.16001 -0.205211,-0.12035 1.071864,0.61899 4.299278,2.45496 3.214793,1.85836 -1.332854,-0.73324 -2.610382,-1.69157 -4.050424,-2.25424 -0.623708,-0.24481 -1.269122,-0.41083 -1.939139,-0.46832 -0.356836,-0.0189 -0.526323,-0.0433 -0.882351,-0.002 -0.476155,0.0559 -0.943867,0.2308 -1.3594,0.46292 -0.250558,0.22435 -0.502341,0.44624 -0.627179,0.76794 -0.01796,0.0285 -0.130511,0.20675 -0.130104,0.20703 3.632838,2.56421 2.323711,2.94141 3.643276,1.92019 0.342543,-0.24373 0.70576,-0.46102 1.104389,-0.60034 0.373359,-0.12123 0.759248,-0.17745 1.152596,-0.14538 0.358122,0.0299 0.711944,0.0773 1.027467,0.26341 1.227686,0.66823 0.298435,0.16431 -3.087094,-1.8139 -0.03685,-0.0215 0.07358,0.0434 0.108529,0.0679 0.06928,0.0486 0.138129,0.0984 0.200808,0.15522 0.03548,0.0322 0.06583,0.0696 0.09875,0.10432 0.252035,0.27271 0.499036,0.54988 0.749816,0.82313 1.018104,1.23183 1.420442,0.99866 3.754808,2.36415 0.20242,0.1184 0.431075,0.18493 0.650769,0.26149 0.337413,0.10583 0.683917,0.19798 1.013026,0.32805 0.121905,0.0482 0.470464,0.22955 0.358865,0.16079 -2.552051,-1.57242 -4.068754,-2.31523 -2.828792,-1.70342 0.0213,0.0352 0.04652,0.0683 0.06391,0.10561 0.0164,0.0352 0.0024,0.0928 0.03688,0.11051 1.196345,0.61238 2.416977,1.17611 3.625466,1.76417 -0.01013,-0.007 -0.02508,-0.0103 -0.03039,-0.0215 -0.03728,-0.0788 -0.0245,-0.17631 -0.06147,-0.25424 -0.03581,-0.21293 -0.06447,-0.43662 -0.144725,-0.63882 -0.0254,-0.064 -0.03508,-0.14806 -0.09381,-0.18395 -3.326503,-2.03233 -2.175349,-1.91361 -3.715438,-2.03231 -0.773978,0.009 -1.549567,0.0606 -2.306786,0.23149 -1.082304,0.25886 -2.161439,0.54814 -3.216256,0.90453 -0.308062,0.10409 -0.611021,0.2227 -0.916477,0.3342 -0.296296,0.10815 -0.592521,0.2165 -0.88878,0.32476 -0.58003,0.18897 -1.226505,0.46628 -1.856767,0.35767 -0.126643,-0.0218 -0.472977,-0.19451 -0.364482,-0.12564 0.910979,0.57827 4.121296,2.50671 2.78011,1.65815 -0.04073,-0.0425 -0.103942,-0.0716 -0.122185,-0.12763 -0.01953,-0.06 0.01106,-0.1257 0.01929,-0.18824 0.03247,-0.24698 0.08961,-0.49119 0.218726,-0.70708 0.212936,-0.3347 0.471403,-0.62839 0.783293,-0.87609 0.323051,-0.2655 0.642872,-0.54199 1.007648,-0.74904 0.281614,-0.16518 0.569293,-0.32102 0.873066,-0.44207 0.348388,-0.14776 0.702726,-0.28446 1.0805,-0.33499 0.545598,-0.0722 1.096341,-0.059 1.64428,-0.0155 0.439298,0.0358 0.875961,0.0973 1.315328,0.13321 0.449371,0.0596 0.893477,0.15184 1.341478,0.22092 0.453363,0.0933 0.892341,0.24094 1.324369,0.40621 0.585856,0.22588 1.163852,0.47263 1.718114,0.76905 -0.967084,-0.56526 -1.932006,-1.13423 -2.901257,-1.69576 -0.115273,-0.0668 0.228415,0.13739 0.339175,0.21142 0.361392,0.24154 0.697973,0.5215 1.007726,0.82592 0.431028,0.46744 0.818941,0.97198 1.091221,1.55078 0.15053,0.38147 0.320186,0.76117 0.410036,1.16196 0.03746,0.27452 0.04362,0.55537 -0.02809,0.82574 0.0035,-0.009 0.01344,-0.0176 0.01048,-0.0267 -0.0046,-0.0138 -0.06921,-0.0395 -0.07085,-0.041 -0.01447,-0.0128 -0.0497,-0.0573 -0.03286,-0.0478 4.202788,2.3688 4.422122,2.48354 3.226965,1.85122 -0.186831,-0.14103 5.29e-4,-0.01 -0.218882,-0.13029 -0.216197,-0.11852 -0.415751,-0.26381 -0.614921,-0.40839 -0.197707,-0.16465 -0.378005,-0.3484 -0.576194,-0.512 -0.190227,-0.15703 -0.401563,-0.28953 -0.576823,-0.4651 -0.413303,-0.35326 -0.846413,-0.683 -1.24365,-1.055 -0.317183,-0.26438 -0.664612,-0.49085 -0.94569,-0.79707 -0.357889,-0.34644 -0.705493,-0.70291 -1.053772,-1.0589 -0.254677,-0.24228 -0.508188,-0.49182 -0.775914,-0.71969 -1.100212,-0.93646 -2.925927,-1.0055 -3.738936,-2.19251 -0.549209,-0.20212 -1.128765,-0.26387 -1.708406,-0.32431 -0.632632,-0.0389 -1.267304,-0.0359 -1.90037,-0.005 -0.623456,0.038 -1.246301,0.11466 -1.836605,0.33096 -0.311209,0.10493 -0.648565,0.19279 -0.936485,0.35558 -0.209717,0.11857 -0.356719,0.30012 -0.513662,0.47716 -0.315378,0.38232 -0.561316,0.82241 -0.739074,1.285 -0.17808,0.48072 -0.319484,0.97474 -0.440224,1.47289 -0.06575,0.5073 -0.03155,1.01617 0.03269,1.52278 0.05973,0.53655 0.177118,1.07414 0.40613,1.56555 0.207794,0.52228 0.440233,1.0392 0.799021,1.478 0.296471,0.41422 0.609965,0.81221 1.052084,1.08192 0.0095,0.006 0.233397,0.17291 0.299201,0.14514 0.02713,-0.0115 0.189796,-0.17158 0.168063,-0.20757 -0.03843,-0.0636 -0.202922,0.0322 -0.210777,-0.0728 -0.05633,-0.0247 -0.11411,-0.0463 -0.169005,-0.074 -0.0588,-0.0297 -0.228299,-0.13153 -0.171601,-0.098 1.054856,0.62387 2.110737,1.24602 3.166104,1.86903 -0.04331,-0.029 -0.09031,-0.0532 -0.129929,-0.0872 -0.08293,-0.071 -0.137294,-0.17235 -0.235193,-0.22788 -0.201948,-0.22803 -0.391861,-0.46025 -0.51762,-0.74025 -0.05918,-0.17363 -0.02484,-0.0887 -0.103061,-0.25479 -0.08249,-0.22842 -0.132278,-0.47273 -0.183766,-0.70916 -0.03562,-0.38081 -0.0031,-0.76413 -0.0093,-1.14626 0.0097,-0.2989 -7.94e-4,-0.59835 0.02103,-0.89698 0.02529,-0.30606 0.08931,-0.6021 0.166401,-0.89906 0.09822,-0.33427 0.24791,-0.65247 0.404876,-0.96271 0.185666,-0.34208 0.394288,-0.66692 0.620652,-0.98382 0.229288,-0.30777 0.477856,-0.6021 0.778417,-0.84349 0.199639,-0.17574 0.435362,-0.27432 0.699479,-0.31251 0.385646,-0.0617 0.77393,-0.0509 1.163529,-0.0418 0.292849,0.0113 0.58728,0.025 0.874864,0.0858 0.337055,0.0842 0.671732,0.19127 0.969922,0.3739 -1.065334,-0.62033 -2.129345,-1.24295 -3.196005,-1.86101 -0.05289,-0.0306 0.103706,0.0648 0.154559,0.0987 0.199668,0.13317 0.38167,0.28717 0.589606,0.40847 1.178872,0.68773 2.361575,1.36887 3.542363,2.0533 0.175583,0.0905 0.35293,0.17768 0.52724,0.27063 0.09951,0.0531 0.393602,0.22039 0.296122,0.16367 -5.342289,-3.10851 -3.346746,-1.94468 -2.184675,-1.26203 0.448876,0.30569 0.884288,0.62548 1.109001,1.14251 0.08268,0.19024 0.146883,0.5153 0.192646,0.71676 0.191222,2.5027 -0.868024,0.81815 3.376064,3.47822 0.05771,-0.0833 0.122455,-0.16206 0.173131,-0.24978 0.01003,-0.0173 0.0545,-0.21991 0.05476,-0.22097 0.03381,-0.13734 0.08368,-0.27051 0.101984,-0.41131 -5.29e-4,-0.22475 -0.0021,-0.45024 -0.03254,-0.67337 -0.04686,-0.29615 -0.219051,-0.54544 -0.331745,-0.81992 -0.104047,-0.18903 -0.197472,-0.37695 -0.322122,-0.55364 -0.04423,-0.0627 -0.07006,-0.14587 -0.13534,-0.18619 -3.118358,-1.92618 -2.266635,-1.58379 -3.714776,-2.14397 -0.07595,-0.0161 -0.150855,-0.0384 -0.227854,-0.0484 -0.506563,-0.0656 -1.012071,0.0732 -1.473827,0.26935 -0.299842,0.15991 -0.409845,0.19346 -0.662067,0.43029 -0.446619,0.41935 -0.720368,0.9919 -1.089679,1.47191 -0.55745,0.86775 -1.099899,1.76586 -1.452633,2.7383 -0.186426,0.62497 -0.307192,1.26526 -0.469869,1.89641 -0.07321,0.24385 -0.137483,0.5876 -0.335481,0.77337 -0.08326,0.0781 -0.130445,0.0755 -0.237365,0.10314 -0.208532,0.0203 -0.417156,0.0378 -0.623787,-0.0141 -0.07852,-0.0197 -0.297847,-0.12402 -0.228553,-0.0822 3.031879,1.83163 4.311425,2.06805 2.948914,1.79545 -0.315333,-0.35157 -0.251,-0.54772 -0.245597,-1.00793 0.01548,-0.56722 0.05197,-1.1415 0.269473,-1.67307 0.212436,-0.47487 0.465719,-0.93397 0.825563,-1.31506 0.450101,-0.42772 0.946513,-0.80692 1.49202,-1.10602 0.559504,-0.29425 1.148117,-0.55943 1.784935,-0.63092 1.4078,-0.15805 2.477386,1.20923 -2.630234,-1.84713 0.07321,-0.0304 0.140428,-0.0948 0.219631,-0.0913 0.03424,0.002 0.02088,0.0682 0.01426,0.10183 -0.01426,0.0724 -0.10732,0.22348 -0.150725,0.27827 -0.03425,0.0432 -0.07164,0.0847 -0.114324,0.11959 -0.04245,0.0347 -0.09277,0.0585 -0.139163,0.0877 -0.04983,0.0122 -0.09874,0.0441 -0.149492,0.0366 -0.04063,-0.006 -0.133853,-0.0951 -0.09911,-0.0732 1.079598,0.68026 2.157859,1.36266 3.233936,2.04848 0.02294,0.0146 -0.06174,-0.0102 -0.07397,-0.0345 -0.03611,-0.0717 0.0707,-0.17642 0.09581,-0.21076 0.05226,-0.0399 0.125013,-0.11791 0.206309,-0.0968 0.03247,0.008 0.101359,0.0873 0.07307,0.0692 -1.078455,-0.68787 -2.150939,-1.38505 -3.225065,-2.07965 -0.02212,-0.0143 0.06749,0.0123 0.06889,0.0386 0.0026,0.0483 -0.03986,0.0881 -0.05978,0.13219 -0.0559,0.0465 -0.106712,0.0998 -0.167695,0.13939 -0.195049,0.12649 -0.506468,0.25619 -0.744932,0.22488 -0.0619,-0.008 -0.219239,-0.11871 -0.1676,-0.0836 1.054052,0.71625 2.117439,1.41867 3.176156,2.12801 -0.05918,-0.0616 -0.05286,-0.034 0.06276,-0.13863 0.252516,-0.22853 0.584729,-0.31839 0.917797,-0.33494 0.09497,0.0121 0.192202,0.0125 0.284901,0.0364 0.07908,0.0204 0.295614,0.13761 0.225698,0.0954 -1.032664,-0.62361 -2.079461,-1.22354 -3.115948,-1.84079 -0.05784,-0.0344 0.122537,0.0566 0.179694,0.0922 0.162179,0.10094 0.139737,0.1 0.240557,0.24971 0.02357,0.42545 -0.07178,0.79356 -0.496861,0.98476 -0.09445,0.0425 -0.197072,0.0638 -0.295608,0.0956 -0.121068,0.0113 -0.241697,0.0382 -0.363205,0.0337 -0.134175,-0.005 -0.509103,-0.13715 -0.398052,-0.0617 0.909325,0.61795 1.882259,1.1367 2.82131,1.70846 0.124053,0.0755 -0.259405,-0.13347 -0.376256,-0.21973 -0.275672,-0.2035 -0.335452,-0.32841 -0.532,-0.5987 -0.323858,-0.52141 -0.577493,-0.9816 -0.374759,-1.60375 0.02606,-0.0643 0.04671,-0.13107 0.07823,-0.19288 0.173923,-0.34107 0.500417,-0.57458 0.844224,-0.72009 0.316558,-0.0991 0.569846,-0.15302 0.906764,-0.12973 1.328666,0.0918 3.505462,1.92762 -2.508686,-1.6777 0.06469,0.0183 0.134879,0.023 0.194058,0.0549 0.05311,0.0286 0.09176,0.0786 0.133869,0.12182 0.173918,0.17845 0.275198,0.40348 0.435112,0.59193 0.206614,0.2693 0.447226,0.51374 0.596752,0.82366 0.0226,0.0534 0.05125,0.10456 0.06781,0.1601 0.108672,0.36438 0.01632,0.76091 0.0021,1.13058 -0.02463,0.19236 -0.02961,0.27658 -0.07527,0.46252 -0.01209,0.0492 -0.04724,0.0944 -0.04548,0.14505 0.0011,0.0312 0.02066,-0.0961 0.04773,-0.0806 3.261921,1.8778 4.076581,3.13219 3.300889,1.96048 0.0019,-0.31593 0.06343,-0.62364 0.07106,-0.93947 0.01,-0.41343 -0.03565,-0.83096 -0.113056,-1.23624 -0.03386,-0.1117 -0.06054,-0.22583 -0.101563,-0.33511 -0.182261,-0.48552 -0.509191,-0.89562 -0.856374,-1.27286 -1.822133,-1.06202 -2.952105,-2.25383 -4.900015,-2.31925 -0.63387,0.0221 -1.279062,0.0574 -1.886762,0.25317 -0.627301,0.20356 -1.248624,0.42569 -1.852133,0.69291 -0.366718,0.16947 -0.735719,0.33731 -1.044909,0.60462 -0.283133,0.24479 -0.492882,0.57107 -0.712618,0.86877 -0.201742,0.32634 -0.251195,0.39843 -0.439446,0.735 -0.08437,0.15084 -0.288764,0.51833 -0.3428,0.69391 -0.01635,0.0531 -0.03921,0.43217 -0.04248,0.47941 0.05546,0.50322 0.135006,1.00441 0.24167,1.49935 0.08193,0.3371 0.176919,0.66327 0.370938,0.95603 0.182108,0.39374 0.379995,0.78007 0.538131,1.18467 0.122822,0.24287 0.261138,0.47579 0.382521,0.71932 0.02991,0.06 0.03027,0.14594 0.08728,0.18122 3.486906,2.15801 2.540415,2.97902 3.669919,1.8705 0.03201,-0.0566 0.07297,-0.10896 0.09604,-0.16973 0.08119,-0.21394 -0.164697,-0.38927 -0.225933,-0.56986 -0.2014,-0.35611 -0.384344,-0.72423 -0.542327,-1.10158 -0.125634,-0.33407 -0.22172,-0.67894 -0.315219,-1.02333 -0.09873,-0.40177 -0.248158,-0.78868 -0.348607,-1.19014 -0.03606,-0.10522 -0.08236,-0.20751 -0.107786,-0.3158 -0.04695,-0.19993 -0.005,-0.41066 -0.01386,-0.61293 0.01921,-0.36809 0.05669,-0.73595 0.183705,-1.08511 0.13784,-0.36574 0.288677,-0.73038 0.490673,-1.06588 0.20796,-0.4101 0.455631,-0.79918 0.763077,-1.14301 0.366543,-0.40995 0.75978,-0.80218 1.198739,-1.1346 0.290844,-0.20964 0.597107,-0.40477 0.96746,-0.41046 0.383601,-0.006 0.767157,-0.0105 1.150821,-0.006 0.496798,0.0138 0.993495,0.0567 1.480802,0.15813 0.719888,0.15825 1.445582,0.33823 2.102352,0.68235 1.351878,0.75648 -0.118904,-0.0649 -2.85668,-1.65801 -0.0585,-0.034 0.12201,0.0591 0.179758,0.0944 0.15851,0.0969 0.201309,0.15312 0.357304,0.25687 0.06575,0.0437 0.135433,0.0812 0.20315,0.12184 0.462889,0.30693 0.894101,0.6606 1.257398,1.08267 0.282517,0.34559 0.600281,0.66141 0.851958,1.03141 0.181618,0.37247 0.348684,0.63705 0.318643,1.06864 0.0086,0.44309 0.0068,0.88631 0.0149,1.32941 0.0058,0.50489 0.0096,1.01107 -0.03174,1.51469 -0.02638,0.21378 -0.02977,0.62727 -0.310214,0.66373 -1.131196,-0.66507 -2.361075,-1.43962 3.064934,1.78657 0.120179,0.0714 -0.595022,-0.2394 -0.338296,-0.24036 -0.169969,-0.33789 -0.269926,-0.70276 -0.396513,-1.0583 -0.119012,-0.33278 -0.22265,-0.67024 -0.350287,-0.99933 -0.175763,-0.36974 -0.360971,-0.7352 -0.545783,-1.10019 -0.166052,-0.29335 -0.363204,-0.56599 -0.590338,-0.81612 -0.29968,-0.35194 -0.540491,-0.75558 -0.886156,-1.06923 -0.03021,-0.0342 -0.351086,-0.39915 -0.382024,-0.42962 -0.06339,-0.0624 -0.12623,-0.12804 -0.202398,-0.17403 -0.986425,-0.59565 -2.559645,-1.77479 -3.968149,-2.25177 -0.559621,-0.10154 -1.090314,-0.024 -1.647341,0.0689 -0.268126,0.054 -0.454589,0.0818 -0.713534,0.17273 -0.382442,0.13423 -0.718386,0.37062 -1.040955,0.60972 -0.494663,0.38597 -0.981432,0.78965 -1.348759,1.30462 -0.399396,0.56304 -0.784034,1.13884 -1.089496,1.75945 -0.233434,0.56261 -0.372782,1.13633 -0.389969,1.74789 -0.02903,0.40972 -0.0245,0.82043 -0.05093,1.23024 4.266189,2.29162 3.522821,3.14437 3.504147,1.38511 -0.0013,-0.31983 0.007,-0.64129 0.06402,-0.95686 0.08245,-0.36723 0.214522,-0.70544 0.438394,-1.01158 0.188589,-0.2792 0.352395,-0.57979 0.601347,-0.8124 0.274638,-0.23712 0.573508,-0.4101 0.932672,-0.48924 0.418971,-0.11166 0.837102,-0.24338 1.272567,-0.27082 0.29092,-0.006 0.576424,-5.3e-4 0.864407,0.0493 1.346779,0.233 3.102223,1.63261 -2.406835,-1.61598 0.07635,0.006 0.158961,-0.0116 0.229044,0.0193 0.04298,0.019 0.05843,0.0745 0.07897,0.11676 0.113083,0.23261 -0.0069,0.50463 -0.05543,0.73665 -0.167669,0.50306 -0.39652,1.02012 -0.820327,1.35871 -1.382064,0.11257 0.09437,-0.0242 3.266657,1.97806 0.03613,0.0228 -0.06067,0.0615 -0.0975,0.0832 -0.0122,0.007 -0.0083,-0.0711 0.02109,-0.0368 -1.150258,-0.64161 -2.300518,-1.28323 -3.450778,-1.92485 0.03496,-0.0356 0.05582,-0.0977 0.104891,-0.1069 0.02896,-0.005 0.008,0.0618 -0.0051,0.0882 -0.03072,0.0621 -0.07584,0.1165 -0.121888,0.16821 -0.04555,0.0511 -0.09421,0.10127 -0.151506,0.1388 -0.03533,0.0231 -0.0803,0.0262 -0.120446,0.0393 1.100707,0.65738 2.20141,1.31475 3.302114,1.97213 -0.04106,-0.003 -0.10264,0.0265 -0.123193,-0.009 -0.0842,-0.14618 0.08364,-0.56073 0.110191,-0.62748 0.241335,-0.60679 0.589095,-1.16974 0.939964,-1.71706 1.115023,-1.46027 0.657926,-0.54723 -2.876256,-2.65445 -0.06798,-0.0405 -0.07525,0.13955 -0.119383,0.20525 -0.213476,0.31779 -0.459044,0.61659 -0.721775,0.89445 1.065165,0.77395 2.095624,1.59807 3.195495,2.32186 0.05148,0.0339 0.04481,-0.11576 0.07832,-0.16748 0.04974,-0.0768 0.110496,-0.14594 0.169839,-0.21556 0.294658,-0.34567 0.615916,-0.66969 0.989161,-0.93128 1.433988,-0.6586 0.492916,-0.13315 -2.983828,-2.1944 -0.04218,-0.025 0.02519,0.0977 0.0173,0.1461 -0.06551,0.40247 -0.319873,0.74737 -0.442854,1.13005 -0.522176,1.69837 -0.362143,0.65751 3.388371,2.39597 0.102669,0.0476 0.195937,-0.11399 0.287768,-0.18011 0.434692,-0.313 0.828726,-0.68723 1.314032,-0.9273 1.506961,-0.44813 0.582261,-0.086 -2.848496,-2.16286 -0.04804,-0.0291 0.03428,0.11264 0.02088,0.16717 -0.07799,0.31748 -0.359191,0.65803 -0.473006,0.96662 1.15829,0.65733 2.290447,1.363 3.474868,1.97198 0.0509,0.0262 0.07664,-0.0852 0.118176,-0.12457 0.07584,-0.0719 0.154501,-0.1408 0.233696,-0.20898 0.08347,-0.0719 0.162676,-0.14982 0.254198,-0.2111 1.188633,-0.79585 3.387551,1.88462 -3.061946,-2.174 0.01191,0.0323 0.04315,0.0633 0.03574,0.0969 -0.01683,0.0763 -0.241739,0.53217 -0.266022,0.58271 -0.0468,0.0974 -0.222901,0.22271 -0.14023,0.2923 3.066749,2.58146 2.265553,3.19665 3.411948,2.18223 0.09339,-0.0837 0.289192,-0.26256 0.380632,-0.32721 0.0635,-0.0449 0.267539,-0.0725 0.202713,-0.11549 -1.059489,-0.70207 -2.219462,-1.24244 -3.288754,-1.92949 -0.04995,-0.0321 0.11295,-0.12058 0.158109,-0.082 0.05181,0.0442 -0.01032,0.13584 -0.0155,0.20376 -0.07404,0.25713 -0.09711,0.35115 -0.187526,0.60691 -0.03368,0.0953 -0.185963,0.21932 -0.107776,0.28332 5.386044,4.40845 2.047142,2.89036 3.550682,2.11051 0.05644,-0.0217 0.1104,-0.0516 0.169317,-0.0653 0.05271,-0.0123 0.207929,0.0168 0.161933,-0.0117 -1.064659,-0.66008 -2.182759,-1.23172 -3.243159,-1.89861 -0.05,-0.0314 0.128178,-0.0682 0.174387,-0.0314 0.04842,0.0385 0.01892,0.38188 0.0176,0.41066 -0.0034,0.0458 -0.0068,0.0916 -0.01016,0.13734 0.01423,-0.009 0.0413,-0.0429 0.04274,-0.0262 0.0034,0.0389 -0.0267,0.0737 -0.03535,0.11177 -0.07278,0.32092 -0.07871,0.65419 -0.14483,0.97618 -0.09363,0.60643 -0.209109,1.20644 -0.318223,1.81005 -0.02946,0.16297 -0.207589,0.38462 -0.0801,0.49032 3.187242,2.64257 2.552165,3.28724 3.554637,2.05621 0.289362,-0.79307 0.531522,-1.60229 0.86863,-2.37798 0.08786,-0.20217 0.189238,-0.3982 0.284541,-0.59698 0.06613,-0.13793 0.13317,-0.27542 0.199752,-0.41313 0.06493,-0.0945 0.119695,-0.19684 0.194776,-0.28349 0.03453,-0.0398 0.174352,-0.063 0.129545,-0.0908 -1.092046,-0.67749 -2.243463,-1.2547 -3.350482,-1.90744 -0.02829,-0.0167 0.068,-0.0237 0.098,-0.0103 0.05345,0.0238 0.07725,0.16823 0.08601,0.20112 0.03602,0.40568 0.08757,0.81007 0.110704,1.21658 0.05768,0.81104 0.165404,1.61646 0.26303,2.42339 0.114443,1.05778 0.232916,2.12655 0.176395,3.1913 -0.297889,1.47457 -0.107182,0.25019 3.508894,2.04006 0.01643,0.008 0.108331,-0.32204 0.111112,-0.33102 0.01572,-0.0507 0.03268,-0.10107 0.04902,-0.15161 0.122267,-0.38046 0.221144,-0.77575 0.212323,-1.17811 -0.0057,-0.39514 0.0045,-0.79176 -0.03332,-1.18544 -0.05044,-0.44833 -0.138888,-0.89745 -0.323477,-1.31165 -0.607047,-1.39255 -0.08869,-0.2958 -3.589494,-2.13911 -0.107669,-0.0567 -0.397946,0.24145 -0.461666,0.3324 -0.08213,0.0945 -0.182211,0.2093 -0.315463,0.15212 -0.634359,-1.17568 -0.07152,-0.10798 3.262792,1.85277 0.03867,0.0228 -0.08622,-0.0268 -0.125654,-0.0482 -0.163943,-0.0889 -0.258413,-0.24066 -0.349236,-0.39752 -0.258779,-0.48093 -0.515475,-0.9681 -0.887984,-1.37389 -1.067126,-1.18322 -0.209093,-0.27028 -3.68264,-2.21675 -0.216911,-0.12154 -0.652656,-0.0895 -0.886905,-0.0496 -0.440005,0.12409 -0.818798,0.31019 -1.15589,0.62613 -0.04669,0.0509 -0.449774,0.51448 -0.363448,0.56974 2.530208,1.61957 2.576817,2.73959 3.716618,1.71837 0.260242,-0.26008 0.500314,-0.5429 0.715714,-0.84103 0.203591,-0.26728 0.371975,-0.57577 0.639365,-0.78461 0.06765,-0.0363 0.131403,-0.0839 0.209926,-0.0472 0.0282,0.0132 0.105701,0.0657 0.07875,0.0502 -3.301831,-1.9063 -4.464277,-2.1557 -3.10256,-1.8461 0.1601,0.0566 0.200195,0.024 0.18872,0.19487 -0.0029,0.0438 -5.29e-4,0.0933 -0.02659,0.13093 -0.17199,0.0431 -0.368422,-0.0583 -0.534818,-0.0832 -0.140674,-0.0513 -0.277498,-0.10555 -0.410827,-0.17435 -0.08417,-0.0434 -0.201329,-0.11613 -0.291116,-0.14951 -0.04595,-0.0171 -0.09487,-0.0248 -0.142298,-0.0372 -0.294473,-0.10064 -0.60512,-0.15214 -0.888166,-0.28756 -0.442185,-0.16482 -0.892874,-0.31861 -1.367327,-0.35271 -0.546899,-0.0294 -1.097008,-0.0245 -1.643034,0.0193 -0.351231,0.0496 -0.676883,0.1597 -0.995849,0.31538 -0.264441,0.0975 -0.536781,0.11606 -0.817653,0.1 -0.274838,10e-4 -0.549968,-0.005 -0.824415,0.0134 -0.29737,0.0211 -0.596974,0.0519 -0.860882,0.20356 -0.211281,0.14094 -0.39946,0.30468 -0.570146,0.49339 -0.167645,0.1593 -0.356216,0.30149 -0.485145,0.49655 -0.13271,0.27413 -0.25091,0.56554 -0.212183,0.87651 0.03132,0.16995 0.05304,0.35304 0.112292,0.51624 0.0158,0.0435 0.02177,0.10105 0.06177,0.12429 3.471098,2.01602 2.282807,2.47249 3.663429,1.88785 0.266518,-0.18171 0.478782,-0.42248 0.721477,-0.63339 0.227293,-0.18187 0.473453,-0.40256 0.776173,-0.42206 1.336517,0.37988 -0.251536,-0.0624 -3.201815,-1.84482 -0.0394,-0.0238 0.08557,-0.0532 0.130757,-0.0444 0.078,0.0152 0.05465,0.21041 0.07926,0.22626 1.123582,0.72357 2.285695,1.38547 3.428545,2.0782 0.506944,0.083 1.022567,0.0402 1.533273,0.0804 0.265076,0.0193 0.571701,0.0346 0.834155,0.082 0.112114,0.0202 0.423426,0.15048 0.331491,0.0832 -1.015196,-0.74292 -2.07985,-1.41576 -3.119776,-2.12365 0.06829,-0.0846 0.06771,-0.0429 0.04559,-0.11651 1.125381,0.62649 2.257811,1.24049 3.376144,1.87949 0.02638,0.0151 -0.0671,0.0161 -0.09113,-0.002 -0.03388,-0.0262 -0.03955,-0.076 -0.05933,-0.11402 -1.168649,-0.65013 -2.337297,-1.30027 -3.505946,-1.95041 -0.115433,-0.0612 -0.281469,0.0813 -0.391361,0.0209 -0.715579,0.0977 -1.444525,0.20236 -2.117635,0.47362 -0.07657,0.0363 -0.153927,0.0709 -0.229709,0.10879 -0.04651,0.0233 -0.179956,0.0452 -0.13703,0.0745 1.087387,0.74326 2.227397,1.40645 3.338504,2.11376 0.0063,0.004 -0.02582,0.004 -0.02244,-0.003 0.04089,-0.0809 0.12233,-0.13673 0.161128,-0.21892 0.196954,-0.24402 0.384326,-0.49606 0.599319,-0.72475 0.156681,-0.1561 0.330168,-0.34986 0.571275,-0.32506 1.274617,0.49628 0.09512,0.0427 -3.18325,-1.84293 -0.03418,-0.0197 0.07163,0.0335 0.105161,0.0542 0.0357,0.0221 0.06584,0.0525 0.101952,0.0739 3.483872,2.06552 2.126652,1.98331 3.617352,2.04732 0.247589,-0.0292 0.467127,-0.16269 0.720796,-0.14177 1.146085,0.28652 4.070615,3.103 -2.91194,-1.79069 -0.05255,-0.0314 0.11426,0.0497 0.159657,0.0908 0.111342,0.10073 0.145468,0.23095 0.199983,0.36404 0.08785,0.24796 0.157268,0.50711 0.260953,0.74899 0.03651,0.0852 0.04411,0.20115 0.123388,0.24913 3.35601,2.03128 2.221442,2.02116 3.818221,1.97377 0.675796,-0.0662 1.390489,-0.15314 2.036487,0.10684 -1.037674,-0.60504 -2.07913,-1.20365 -3.113021,-1.81513 -0.06036,-0.0357 0.133263,0.0481 0.191452,0.0872 0.05719,0.0385 0.0997,0.0952 0.149935,0.14239 0.05264,0.0495 0.10665,0.0974 0.158694,0.14751 0.05436,0.0523 0.09548,0.12124 0.160454,0.15956 1.170617,0.69034 2.359956,1.34843 3.539937,2.02264 0.408779,0.0502 0.0495,0.0162 0.458343,0.0262 0.06648,0.002 0.134154,-0.002 0.199104,0.0124 0.04512,0.01 0.165317,0.0822 0.125463,0.0588 -3.240789,-1.8991 -4.459073,-2.31663 -3.149862,-1.85898 0.14029,0.12092 0.225407,0.2493 0.333002,0.39974 0.147958,0.20687 0.324043,0.39245 0.450382,0.61465 0.237614,0.35384 0.478353,0.71123 0.64049,1.10745 0.114424,0.4306 0.184877,0.87029 0.199731,1.31669 0.02931,0.86418 -0.05454,1.73038 -0.176794,2.5851 -0.07679,0.44258 -0.145847,0.88517 -0.248836,1.32261 -0.02365,0.10043 -0.159509,0.2404 -0.07543,0.30021 3.350982,2.38348 2.819091,3.27154 3.518786,1.95236 0.05544,-0.26834 0.08022,-0.535 0.113422,-0.80694 0.05311,-0.43504 0.127198,-0.86697 0.196747,-1.29956 0.03497,-0.30482 0.07183,-0.41952 0.02466,-0.71306 -0.01505,-0.0937 -0.04837,-0.1836 -0.07474,-0.27479 -0.106532,-0.36846 -0.218388,-0.73543 -0.296299,-1.11161 -0.04385,-0.21888 -0.08052,-0.43918 -0.125699,-0.65779 -0.06515,-0.31521 -0.178985,-0.62053 -0.205052,-0.9436 -0.07916,-0.54679 -0.107458,-1.1 -0.20638,-1.64451 -0.05546,-0.2862 -0.118361,-0.56993 -0.181959,-0.8544 -0.03483,-0.15578 -0.08323,-0.30872 -0.10985,-0.4661 -0.01378,-0.0815 -0.01619,-0.16458 -0.02432,-0.24687 -0.0028,-0.25178 -0.02708,-0.51243 -0.01542,-0.76375 0.0042,-0.0895 0.106568,-0.22026 0.0302,-0.26718 -3.429042,-2.10687 -2.675387,-2.89652 -3.653348,-1.76194 -0.186372,0.35695 -0.287911,0.75131 -0.501126,1.09643 -0.05686,0.092 -0.283384,0.19799 -0.194569,0.25976 1.0433,0.72558 2.202492,1.26837 3.303738,1.90256 -0.163499,-0.005 -0.141446,0.0335 -0.228311,-0.11729 -0.02482,-0.0431 -0.0163,-0.1118 -0.05921,-0.13693 -1.159492,-0.67895 -2.348154,-1.3068 -3.522232,-1.96021 -0.0241,0.009 -0.04758,0.0336 -0.07233,0.0266 -0.01818,-0.005 -0.01389,-0.0351 -0.02085,-0.0527 1.116312,0.63323 2.241638,1.25083 3.348932,1.8997 0.0034,0.002 -0.0963,0.0451 -0.202329,-0.0636 -0.113149,-0.11603 -0.158962,-0.28783 -0.200676,-0.43765 -0.751684,-0.43681 -2.387706,-2.65742 -3.649197,-1.95273 -0.170688,0.0953 -0.306877,0.24988 -0.49512,0.3159 -0.105921,-0.0259 -0.06286,0.002 -0.129178,-0.0844 1.081688,0.64992 2.163377,1.29984 3.245065,1.94976 0.03859,0.0232 -0.08409,-0.0384 -0.114348,-0.0718 -0.06319,-0.0695 -0.144201,-0.27943 -0.176268,-0.35363 -0.548447,-1.52361 -2.065258,-4.01469 -4.168664,-2.78658 -0.360857,0.30879 -0.656894,0.68491 -1.03315,0.97689 -0.110858,0.072 -0.221692,0.15997 -0.353333,0.19456 -0.124986,0.0328 -0.206356,-0.059 -0.191577,-0.0505 3.311711,1.91423 4.479306,2.26344 3.152947,1.85548 -0.119702,-0.0916 -0.113956,-0.0703 -0.196236,-0.2062 -0.02926,-0.0483 -0.03008,-0.12053 -0.07796,-0.15054 -1.624335,-1.01834 -2.276612,-2.02396 -3.765463,-2.09869 -0.531299,0.0198 -1.053552,0.13437 -1.55421,0.31266 -0.66177,0.24297 -1.313563,0.5129 -1.993373,0.70425 z"
       inkscape:label="hair" />
    <rect
       style="fill:#2b1100;stroke-width:0.264583"
       id="rect10"
       width="8.3788052"
       height="1.7568464"
       x="76.084961"
       y="118.11413"
       inkscape:label="glasses frame1" />
    <rect
       style="fill:#2b1100;stroke-width:0.264583"
       id="rect9"
       width="9.189662"
       height="1.3514175"
       x="111.22189"
       y="116.22215"
       inkscape:label="glassesframe 2" />
    <path
       style="fill:#ffb380;stroke-width:0.264583"
       id="path4"
       sodipodi:type="arc"
       sodipodi:cx="45.732685"
       sodipodi:cy="138.06544"
       sodipodi:rx="8.0270271"
       sodipodi:ry="12.04054"
       sodipodi:start="0"
       sodipodi:end="6.2645772"
       sodipodi:open="true"
       sodipodi:arc-type="arc"
       d="m 53.759712,138.06544 a 8.0270271,12.04054 0 0 1 -7.989685,12.04041 8.0270271,12.04054 0 0 1 -8.064022,-11.92838 8.0270271,12.04054 0 0 1 7.914658,-12.15139 8.0270271,12.04054 0 0 1 8.13766,11.81533"
       transform="rotate(-10.764275)"
       inkscape:label="ear" />
    <path
       style="fill:#ffccaa;stroke-width:0.264583"
       id="path6"
       d="m 67.31859,120.46848 c 0.0297,0.0287 0.05872,0.0581 0.0891,0.0861 0.03938,0.0363 0.08094,0.0702 0.120121,0.10668 0.167074,0.15566 0.322339,0.3243 0.483465,0.48601 0.190436,0.17932 0.365138,0.37305 0.516382,0.58644 0.167111,0.21416 0.26035,0.47012 0.349009,0.72372 0.127693,0.36517 0.202491,0.74367 0.279001,1.12182 0.02371,0.1772 0.03964,0.26998 0.04953,0.44852 0.0038,0.0685 0.0013,0.13726 0.0043,0.20582 0.0032,0.0734 0.01106,0.14653 0.01423,0.21992 0.009,0.20848 0.005,0.20689 -0.0035,0.40723 -0.02318,0.3121 -0.01624,0.62535 -0.03196,0.93764 0.01757,0.35155 -0.042,0.70128 -0.08883,1.04857 -0.0588,0.28248 -0.09322,0.57051 -0.181602,0.84613 -0.03205,0.1 -0.109231,0.29177 -0.148424,0.3914 -0.135233,0.30875 -0.250139,0.62546 -0.37394,0.93873 -0.112448,0.27715 -0.262205,0.53771 -0.431078,0.784 -0.103315,0.18306 -0.197673,0.37174 -0.290563,0.56051 0,0 3.443647,1.86188 3.443647,1.86188 v 0 c -0.01535,-0.17293 0.09037,-0.3642 0.161185,-0.51618 0.125132,-0.28668 0.293544,-0.55284 0.40314,-0.84677 0.06016,-0.13423 0.0829,-0.17822 0.13263,-0.31545 0.08022,-0.22135 0.14205,-0.44895 0.21073,-0.67397 0.02985,-0.10831 0.08641,-0.31596 0.118116,-0.42066 0.08656,-0.28579 0.192508,-0.56653 0.245067,-0.86167 0.07564,-0.35367 0.14174,-0.7101 0.189521,-1.06859 -0.01437,-0.32631 -0.006,-0.65361 -0.03574,-0.97935 -0.01633,-0.23701 -0.01566,-0.18381 -0.0199,-0.42803 -0.0013,-0.074 0.0016,-0.14814 -0.0021,-0.22207 -0.0037,-0.074 -0.01429,-0.14752 -0.01998,-0.22139 -0.01193,-0.15471 -0.01749,-0.30988 -0.03183,-0.46442 -0.0053,-0.0741 -0.0076,-0.14856 -0.01582,-0.22242 -0.02019,-0.18078 -0.04048,-0.221 -0.06649,-0.39853 -0.02561,-0.17487 -0.03605,-0.35253 -0.0936,-0.52158 -0.07432,-0.26563 -0.127251,-0.54059 -0.241739,-0.79266 -0.03941,-0.0627 -0.09647,-0.15591 -0.140134,-0.21458 -0.126074,-0.1694 -0.268293,-0.32754 -0.418174,-0.47599 -0.1535,-0.14716 -0.309263,-0.29259 -0.444733,-0.45711 -0.0236,-0.0287 -0.04397,-0.0599 -0.06716,-0.0889 -0.01378,-0.0172 -0.0291,-0.0331 -0.04365,-0.0497 z"
       inkscape:label="ear glow" />
    <path
       style="fill:#552200;stroke-width:0.264583"
       id="path11"
       sodipodi:type="arc"
       sodipodi:cx="95.815704"
       sodipodi:cy="118.31686"
       sodipodi:rx="3.9191189"
       sodipodi:ry="3.9866898"
       sodipodi:start="0"
       sodipodi:end="6.2645772"
       sodipodi:open="true"
       sodipodi:arc-type="arc"
       d="m 99.734823,118.31686 a 3.9191189,3.9866898 0 0 1 -3.900887,3.98664 3.9191189,3.9866898 0 0 1 -3.937181,-3.94955 3.9191189,3.9866898 0 0 1 3.864256,-4.0234 3.9191189,3.9866898 0 0 1 3.973134,3.91213"
       inkscape:label="pupilpl" />
    <path
       style="fill:#552200;stroke-width:0.264583"
       id="path12"
       sodipodi:type="arc"
       sodipodi:cx="130.54721"
       sodipodi:cy="117.77629"
       sodipodi:rx="3.9191189"
       sodipodi:ry="3.9866898"
       sodipodi:start="0"
       sodipodi:end="6.2645772"
       sodipodi:open="true"
       sodipodi:arc-type="arc"
       d="m 134.46633,117.77629 a 3.9191189,3.9866898 0 0 1 -3.90089,3.98665 3.9191189,3.9866898 0 0 1 -3.93718,-3.94956 3.9191189,3.9866898 0 0 1 3.86426,-4.02339 3.9191189,3.9866898 0 0 1 3.97313,3.91212"
       inkscape:label="pupilpr" />
    <path
       style="fill:#f9f9f9;stroke-width:0.264583"
       id="path13"
       sodipodi:type="arc"
       sodipodi:cx="97.842834"
       sodipodi:cy="115.81672"
       sodipodi:rx="0.9459942"
       sodipodi:ry="1.0811362"
       sodipodi:start="0"
       sodipodi:end="6.2645772"
       sodipodi:open="true"
       sodipodi:arc-type="arc"
       d="m 98.788829,115.81672 a 0.9459942,1.0811362 0 0 1 -0.941594,1.08112 0.9459942,1.0811362 0 0 1 -0.950354,-1.07106 0.9459942,1.0811362 0 0 1 0.932752,-1.09109 0.9459942,1.0811362 0 0 1 0.959032,1.06091" />
    <path
       style="fill:#f9f9f9;stroke-width:0.264583"
       id="path14"
       sodipodi:type="arc"
       sodipodi:cx="132.97977"
       sodipodi:cy="114.87073"
       sodipodi:rx="0.9459942"
       sodipodi:ry="1.0811362"
       sodipodi:start="0"
       sodipodi:end="6.2645772"
       sodipodi:open="true"
       sodipodi:arc-type="arc"
       d="m 133.92576,114.87073 a 0.9459942,1.0811362 0 0 1 -0.94159,1.08112 0.9459942,1.0811362 0 0 1 -0.95036,-1.07106 0.9459942,1.0811362 0 0 1 0.93275,-1.09109 0.9459942,1.0811362 0 0 1 0.95904,1.06091" />
    <circle
       id="path15"
       style="fill:#f9f9f9;stroke:#000000;stroke-width:0.264583"
       cx="71.354996"
       cy="111.22189"
       r="0.018000787" />
    <circle
       id="path16"
       style="fill:#f9f9f9;stroke:#000000;stroke-width:0.264583"
       cx="45.948288"
       cy="169.19783"
       r="0.018000787" />
    <path
       style="fill:#ececec;stroke-width:0.264583"
       id="path17"
       d="m 115.70037,132.29193 c -0.0749,0.0156 -0.15325,-0.001 -0.22805,0.0131 -0.0668,0.0127 -0.13076,0.0372 -0.19605,0.0562 -0.28818,0.0836 -0.57397,0.17363 -0.85972,0.26517 -0.35473,0.10289 -0.69513,0.24391 -1.02914,0.40008 -0.20856,0.0975 -0.38686,0.17565 -0.57145,0.31532 -0.0915,0.0692 -0.17129,0.15255 -0.25693,0.22883 -0.45435,0.45738 -0.88153,0.94483 -1.27722,1.454 -0.0589,0.0869 -0.11702,0.17441 -0.17666,0.26084 -0.20133,0.2918 -0.15816,0.2138 -0.35297,0.51879 -0.44439,0.69573 0.11179,-0.16167 -0.39436,0.66496 -0.0811,0.13243 -0.16941,0.26029 -0.25412,0.39044 -0.52736,0.79972 -1.09095,1.57385 -1.69383,2.31809 -0.5369,0.62164 -1.05091,1.26741 -1.64047,1.84135 -0.12877,0.12536 -0.26403,0.24387 -0.39604,0.3658 -0.76463,0.64255 -1.63456,1.14565 -2.57017,1.49567 -0.69347,0.25943 -0.97221,0.3022 -1.69014,0.47304 -1.01603,0.20213 -2.05155,0.31629 -3.087962,0.25374 -0.496679,-0.03 -0.6316,-0.0644 -1.105363,-0.14339 -0.137279,-0.0342 -0.274561,-0.0685 -0.411843,-0.10271 0,0 2.973408,2.24469 2.973408,2.24469 v 0 c 0.12367,0.0141 0.24733,0.0283 0.371,0.0424 0.40851,0.028 0.62663,0.0511 1.04825,0.0429 1.01324,-0.0196 2.014,-0.21108 3.00369,-0.4126 0.28714,-0.0755 0.57679,-0.14203 0.86142,-0.22651 1.31188,-0.38938 2.56521,-0.96244 3.68077,-1.75921 0.14462,-0.12404 0.29429,-0.24242 0.43384,-0.37211 0.22159,-0.20593 0.50329,-0.51966 0.70694,-0.74413 0.33117,-0.36504 0.65667,-0.73514 0.9691,-1.11645 0.13802,-0.17147 0.47678,-0.58974 0.60911,-0.76459 0.38712,-0.51151 0.7277,-1.05616 1.10825,-1.57238 0.0922,-0.12708 0.18433,-0.25416 0.2765,-0.38124 0.0904,-0.11517 0.18377,-0.228 0.27106,-0.34551 0.24972,-0.33617 0.4676,-0.69621 0.71973,-1.03086 0.37624,-0.48717 0.76289,-0.97322 1.21852,-1.38912 0.0813,-0.06 0.16032,-0.12332 0.24399,-0.18001 0.45827,-0.31048 0.98007,-0.50579 1.51382,-0.64153 0.46071,-0.10584 0.90361,-0.20471 1.37856,-0.14143 z"
       inkscape:label="moustache" />
    <path
       style="fill:#ececec;stroke-width:0.26912"
       id="path18"
       d="m 120.30985,132.3595 c 0.0775,0.0156 0.15855,-0.001 0.23594,0.0131 0.0691,0.0127 0.13528,0.0372 0.20283,0.0562 0.29815,0.0836 0.59383,0.17363 0.88946,0.26517 0.367,0.10289 0.71917,0.24391 1.06474,0.40008 0.21577,0.0975 0.40024,0.17565 0.59121,0.31532 0.0947,0.0692 0.17722,0.15255 0.26582,0.22883 0.47007,0.45738 0.91202,0.94483 1.3214,1.454 0.0609,0.0869 0.12107,0.17441 0.18277,0.26084 0.2083,0.2918 0.16363,0.2138 0.36518,0.51879 0.45976,0.69573 -0.11566,-0.16167 0.408,0.66496 0.0839,0.13243 0.17527,0.26029 0.26291,0.39044 0.5456,0.79972 1.12869,1.57385 1.75242,2.31809 0.55547,0.62164 1.08726,1.26741 1.69722,1.84135 0.13322,0.12536 0.27316,0.24387 0.40973,0.3658 0.79108,0.64255 1.6911,1.14565 2.65908,1.49567 0.71745,0.25943 1.00584,0.3022 1.7486,0.47304 1.05117,0.20213 2.12251,0.31629 3.19477,0.25374 0.51386,-0.03 0.65345,-0.0644 1.1436,-0.14339 0.14203,-0.0342 0.28407,-0.0685 0.42609,-0.10271 0,0 -3.07626,2.24469 -3.07626,2.24469 v 0 c -0.12794,0.0141 -0.25588,0.0283 -0.38383,0.0424 -0.42264,0.028 -0.64831,0.0511 -1.08451,0.0429 -1.04829,-0.0196 -2.08366,-0.21108 -3.10759,-0.4126 -0.29707,-0.0755 -0.59674,-0.14203 -0.89121,-0.22651 -1.35726,-0.38938 -2.65395,-0.96244 -3.80809,-1.75921 -0.14963,-0.12404 -0.30447,-0.24242 -0.44885,-0.37211 -0.22925,-0.20593 -0.5207,-0.51966 -0.73139,-0.74413 -0.34263,-0.36504 -0.67939,-0.73514 -1.00262,-1.11645 -0.1428,-0.17147 -0.49328,-0.58974 -0.63018,-0.76459 -0.40051,-0.51151 -0.75287,-1.05616 -1.14659,-1.57238 -0.0954,-0.12708 -0.1907,-0.25416 -0.28606,-0.38124 -0.0935,-0.11517 -0.19013,-0.228 -0.28044,-0.34551 -0.25836,-0.33617 -0.48377,-0.69621 -0.74462,-1.03086 -0.38926,-0.48717 -0.78928,-0.97322 -1.26067,-1.38912 -0.0841,-0.06 -0.16587,-0.12332 -0.25243,-0.18001 -0.47412,-0.31048 -1.01397,-0.50579 -1.56619,-0.64153 -0.47664,-0.10584 -0.93486,-0.20471 -1.42624,-0.14143 z"
       inkscape:label="moustache" />
    <path
       style="fill:#ffccaa;stroke-width:0.264583"
       id="path21"
       d="m 84.900614,87.33144 c -0.12976,0.139327 -0.276575,0.258093 -0.429594,0.370919 -0.133016,0.09981 -0.277447,0.184695 -0.402238,0.295418 -0.183605,0.162904 0.01294,0.0058 -0.155188,0.136509 -0.15267,0.135239 -0.298323,0.277614 -0.448035,0.41615 -0.148971,0.1266 -0.26452,0.286316 -0.396,0.429996 -0.141332,0.137593 -0.281762,0.277526 -0.407572,0.429641 -0.173217,0.278582 -0.386955,0.529658 -0.597392,0.780473 -0.03807,0.04426 -0.07555,0.08905 -0.114226,0.132797 -0.10333,0.116882 -0.208002,0.230994 -0.298603,0.358537 -0.05665,0.07975 -0.108376,0.162893 -0.164066,0.243313 -0.160461,0.216951 -0.33855,0.421241 -0.519922,0.62099 -0.133659,0.169043 0.003,-0.0061 -0.111791,0.147141 -0.01482,0.01976 -0.03332,0.03701 -0.04554,0.05849 -0.01704,0.02996 -0.02665,0.06361 -0.04158,0.09468 -0.01357,0.02825 -0.101211,0.194177 -0.114514,0.219464 -0.117692,0.24426 -0.2696,0.466963 -0.421418,0.690414 -0.01945,0.03205 -0.04066,0.06309 -0.05831,0.09616 -0.04796,0.08985 -0.04207,0.101626 -0.08482,0.192744 -0.04021,0.0857 -0.0901,0.16746 -0.138253,0.248816 -0.094,0.141209 -0.171508,0.292553 -0.248253,0.443611 -0.08472,0.152422 -0.179559,0.298543 -0.26208,0.452115 -0.04752,0.122629 -0.112723,0.236461 -0.171834,0.353362 -0.02275,0.04498 -0.04166,0.09181 -0.06444,0.136776 -0.04362,0.0861 -0.09218,0.169606 -0.138147,0.254476 -0.07893,0.174773 -0.184679,0.336005 -0.262416,0.511286 -0.182515,0.411525 0.0488,-0.06856 -0.153776,0.342744 -0.115888,0.190421 -0.208243,0.393317 -0.310065,0.591087 -0.0451,0.08759 -0.09412,0.173112 -0.140208,0.260184 -0.109427,0.209936 -0.221377,0.416909 -0.31359,0.635196 -0.101724,0.256886 -0.23286,0.499374 -0.362209,0.742912 -0.105566,0.215736 -0.238308,0.416735 -0.348763,0.629775 -0.03961,0.110011 -0.07924,0.220453 -0.129472,0.326207 -0.01447,0.03047 -0.03274,0.05907 -0.04661,0.08982 -0.0542,0.137477 -0.02595,0.07176 -0.08399,0.197464 -0.07904,0.146497 -0.136017,0.302799 -0.21387,0.449609 -0.0074,0.0208 -0.01622,0.0411 -0.02204,0.06236 -0.01953,0.07115 -0.03285,0.143888 -0.05199,0.215143 -0.0324,0.120661 -0.07131,0.234181 -0.121142,0.348651 -0.07195,0.15665 -0.139018,0.31573 -0.216276,0.46985 -0.06487,0.14167 -0.107693,0.2912 -0.151538,0.44024 -0.04607,0.12393 -0.107616,0.24138 -0.16339,0.3614 -0.01902,0.0374 -0.0741,0.20264 -0.115152,0.21809 -0.02522,0.01 -0.01294,-0.0234 -0.0047,-0.0681 0,0 3.318245,2.1779 3.318245,2.1779 v 0 c 0.04432,-0.0675 0.08276,-0.13403 0.114689,-0.20837 0.01805,-0.042 0.03052,-0.0864 0.04947,-0.12804 0.0097,-0.0213 0.02178,-0.0414 0.03267,-0.0621 0.0686,-0.13354 0.134837,-0.26698 0.164992,-0.4156 0.05373,-0.13485 0.106717,-0.27005 0.161338,-0.40437 0.06147,-0.16907 0.105285,-0.34396 0.158874,-0.51565 0.05192,-0.15134 0.107259,-0.30311 0.183187,-0.44449 0.0136,-0.0253 0.03101,-0.0485 0.04499,-0.0736 0.01191,-0.0214 0.0217,-0.0439 0.03256,-0.0658 0.04588,-0.16039 0.0958,-0.32058 0.166864,-0.47177 0.07455,-0.20346 0.151691,-0.40802 0.255239,-0.59869 0.08725,-0.22192 -0.02746,0.0661 0.0783,-0.18568 0.01434,-0.0341 0.02545,-0.0696 0.04078,-0.10326 0.0544,-0.11958 0.124534,-0.23188 0.180446,-0.350731 0.122081,-0.249279 0.242329,-0.499575 0.376126,-0.742894 0.117269,-0.209595 0.225293,-0.422926 0.300096,-0.652089 0.02731,-0.06913 0.07786,-0.199933 0.108564,-0.26565 0.02349,-0.05029 0.05218,-0.09805 0.07563,-0.148363 0.07014,-0.150439 0.127926,-0.307006 0.201531,-0.455988 0.02901,-0.05428 0.05528,-0.110122 0.08701,-0.162859 0.03125,-0.05193 0.06907,-0.09965 0.10168,-0.150735 0.104788,-0.164164 0.202736,-0.33473 0.286879,-0.510223 0.03925,-0.08488 0.07645,-0.169476 0.122235,-0.251198 0.02365,-0.04223 0.05117,-0.08219 0.07584,-0.123844 0.06508,-0.109889 0.128596,-0.219863 0.215083,-0.315224 0.09949,-0.150204 0.18946,-0.306226 0.287054,-0.457708 0.08303,-0.147095 0.141716,-0.307054 0.232701,-0.450117 0.01902,-0.03783 0.07328,-0.145074 0.09012,-0.181602 0.01421,-0.03086 0.0254,-0.06309 0.04034,-0.09361 0.04341,-0.08874 0.09734,-0.172598 0.122653,-0.269538 0.1113,-0.240734 0.251246,-0.467932 0.39874,-0.687991 0.0098,-0.01363 0.122823,-0.171374 0.139629,-0.191535 0.02183,-0.02619 0.04943,-0.04736 0.07027,-0.07436 0.048,-0.06218 0.07608,-0.141269 0.117139,-0.20773 0.137388,-0.228422 0.282848,-0.453966 0.456211,-0.656963 0.0343,-0.04251 0.06974,-0.08412 0.102891,-0.127521 0.114305,-0.149632 0.05314,-0.07869 0.154641,-0.228248 0.08864,-0.130601 0.185571,-0.255815 0.280091,-0.382111 0.209867,-0.258104 0.428969,-0.509511 0.695841,-0.711068 0.127939,-0.140758 0.250065,-0.286475 0.380166,-0.425339 0.133686,-0.135752 0.274257,-0.264755 0.401757,-0.406556 0.1407,-0.141478 0.283771,-0.279503 0.440235,-0.40387 0.149399,-0.151649 0.309895,-0.294347 0.482703,-0.41873 0.176823,-0.11095 0.355645,-0.217924 0.553325,-0.287777 z" />
    <path
       style="fill:#ffccaa;stroke-width:0.264583"
       id="path22"
       d="m 89.292122,87.856579 c 0.06626,-0.0802 0.161583,-0.127103 0.241884,-0.191773 0.01056,-0.0053 0.02053,-0.01204 0.03166,-0.01603 0.0086,-0.0031 0.01849,-0.0019 0.02707,-0.005 0.06079,-0.02299 0.09966,-0.08211 0.141545,-0.128204 0.03506,-0.03117 0.05525,0.0029 0.07865,-3.2e-5 0.02733,-0.0034 0.05961,-0.03468 0.07753,-0.0487 0.0099,-0.0052 0.01918,-0.01188 0.0297,-0.01569 0.0071,-0.0026 0.0155,-1.61e-4 0.02241,-0.0032 0.05184,-0.02265 0.08946,-0.07004 0.13765,-0.09848 0.01588,-0.01466 0.04046,-0.04238 0.06414,-0.0509 0.03786,-0.0136 -0.004,0.02479 0.04431,-0.01691 0.07769,-0.06708 -0.0034,-0.0127 0.06634,-0.05643 0.06692,-0.04469 0.135131,-0.08573 0.201742,-0.131733 0.07501,-0.02932 0.134496,-0.08625 0.210331,-0.114581 0.01487,-0.01381 0.02793,-0.02986 0.04459,-0.04145 0.0082,-0.0057 0.01942,-0.0052 0.02849,-0.0094 0.01479,-0.0069 0.02911,-0.01495 0.04277,-0.02389 0.0173,-0.01132 0.0323,-0.02598 0.04992,-0.03681 0.03473,-0.02133 0.07252,-0.03724 0.108058,-0.05718 0.05903,-0.04108 0.125587,-0.06879 0.189656,-0.09995 0.08499,-0.04134 0.0011,-0.01024 0.07538,-0.03559 0.06897,-0.01201 0.12016,-0.06372 0.184351,-0.08797 0.09086,-0.03432 -0.0167,0.01826 0.08067,-0.03273 0.08858,-0.03113 0.113339,-0.0752 0.213646,-0.07731 0.01035,7.94e-4 0.02066,0.0019 0.031,0.0026 0,0 -3.248546,-2.24064 -3.248546,-2.24064 v 0 c -0.01482,0.0072 -0.02966,0.01434 -0.04449,0.02151 -0.04473,0.02429 -0.08823,0.05275 -0.13403,0.0749 -0.0227,0.01098 -0.04778,0.01659 -0.07035,0.02783 -0.01331,0.0066 -0.02561,0.01508 -0.03843,0.0226 -0.04114,0.01865 -0.07629,0.04644 -0.117192,0.06521 -0.02921,0.01341 -0.06143,0.01926 -0.09098,0.03189 -0.02167,0.0093 -0.04236,0.02066 -0.06354,0.03098 -0.08053,0.05484 -0.16347,0.106706 -0.246769,0.157154 -0.03668,0.01974 -0.07199,0.04207 -0.109458,0.06026 -0.07327,0.03555 -0.03959,0.0091 -0.105487,0.04832 -0.01955,0.01164 -0.03692,0.02683 -0.05696,0.0376 -0.0077,0.0042 -0.01699,0.0045 -0.02548,0.0067 -0.07321,0.05066 -0.152498,0.08988 -0.226076,0.139653 -0.06871,0.04268 -0.131826,0.09207 -0.200641,0.134556 -0.01339,0.0091 -0.02574,0.0199 -0.04014,0.02731 -0.05206,0.02681 -0.0094,-0.01191 -0.05886,0.02588 -0.02223,0.01699 -0.03977,0.03971 -0.06256,0.05594 -0.0048,0.0034 -0.0108,0.0046 -0.01619,0.0069 -0.01069,0.0073 -0.0204,0.01624 -0.03203,0.02193 -0.02482,0.01212 -0.05804,0.01257 -0.08331,0.02564 -0.01204,0.0062 -0.02223,0.01553 -0.0338,0.02254 -0.0085,0.0052 -0.01762,0.0093 -0.02641,0.01397 -0.06895,-0.01783 -0.165094,0.107582 -0.213275,0.148032 -0.0519,0.04386 -0.01138,0.0073 -0.05238,0.02835 -0.04324,0.02223 -0.07667,0.05715 -0.113935,0.08758 -0.07215,0.051 -0.140073,0.120038 -0.228208,0.139123 z" />
    <circle
       id="path23"
       style="fill:#ffccaa;stroke:#000000;stroke-width:0.264583"
       cx="100.27538"
       cy="96.221123"
       r="0.036001574" />
    <path
       style="fill:#ffccaa;stroke-width:0.264583"
       d="m 115.41129,78.65266 c 1.55459,1.941727 4.23018,2.338192 5.94625,4.054261 0.5131,0.513101 0.73379,1.621705 1.6217,1.621705"
       id="path24" />
    <path
       style="fill:#ffccaa;stroke-width:0.264583"
       d="m 72.706412,138.38544 c 0.979048,-2.14455 2.491771,-4.23191 3.243408,-6.48682 0.270824,-0.81248 0,-2.12683 0,-2.97312"
       id="path25" />
    <path
       style="fill:#ffccaa;stroke-width:0.264583"
       id="path28"
       d="m 92.557226,113.65473 c 0.254788,-0.67706 0.677166,-1.28121 1.138206,-1.83357 0.357362,-0.405 0.729736,-0.77886 1.195869,-1.05537 0.280857,-0.17326 0.580868,-0.31115 0.870018,-0.46965 0,0 -3.267792,-2.12451 -3.267792,-2.12451 v 0 c -0.282974,0.1683 -0.570084,0.32952 -0.851728,0.5001 -0.08252,0.0539 -0.167928,0.10366 -0.247552,0.16178 -0.385725,0.28152 -0.687551,0.66245 -0.994913,1.02248 -0.446897,0.60731 -0.832299,1.25777 -1.255688,1.88157 z" />
    <path
       style="fill:#ffccaa;stroke-width:0.264583"
       id="path29"
       d="m 141.66777,114.8235 c -0.19155,-0.26079 -0.36711,-0.53332 -0.54376,-0.80442 -0.20069,-0.35169 -0.40568,-0.70089 -0.60984,-1.05067 -0.18543,-0.30348 -0.39399,-0.59294 -0.6234,-0.86462 -0.27074,-0.31259 -0.58717,-0.5802 -0.89258,-0.85757 -0.32258,-0.28676 -0.64023,-0.57959 -0.97034,-0.85772 -0.20941,-0.16941 -0.10471,-0.0863 -0.31403,-0.24942 0,0 -3.62487,-1.4485 -3.62487,-1.4485 v 0 c 0.20805,0.16083 0.1038,0.0816 0.31271,0.23782 0.34024,0.27116 0.66942,0.55455 0.99613,0.84207 0.28937,0.27485 0.59409,0.53328 0.87881,0.81221 0.24306,0.25691 0.46451,0.53026 0.6793,0.81108 0.21105,0.33372 0.41981,0.67291 0.57632,1.03595 0.15769,0.27658 0.35813,0.52574 0.5078,0.80653 z" />
    <path
       id="path115"
       style="fill:#e6e6e6;stroke-width:0.237071"
       inkscape:transform-center-x="-6.1286469"
       inkscape:transform-center-y="2.6400163"
       d="m 75.899967,165.67718 a 53.065482,16.391239 89.112101 0 0 -15.318235,53.83243 53.065482,16.391239 89.112101 0 0 8.920294,45.2965 c 0.142772,-0.007 0.285522,-0.0137 0.428353,-0.0189 0.168442,-0.004 0.336892,-0.004 0.505232,-0.001 0.16834,0.003 0.336525,0.008 0.504919,0.0123 l 0.981583,0.023 c 0.342621,0.008 0.684912,0.0161 1.027532,0.0241 0.294604,0.007 0.589542,0.0137 0.884132,0.0208 0.389899,0.009 0.779512,0.0186 1.169394,0.0284 0.342038,0.009 0.684418,0.0181 1.026405,0.0291 0.31422,0.0114 0.628235,0.0255 0.942248,0.0416 0.322738,0.0156 0.645747,0.0231 0.968795,0.0297 0.368067,0.009 0.73622,0.0172 1.104283,0.0259 0.368704,0.009 0.737078,0.0172 1.105783,0.0264 0.337653,0.009 0.675686,0.0179 1.013277,0.0288 0.366445,0.0126 0.732599,0.0272 1.098743,0.0467 0.298505,0.0171 0.596501,0.0396 0.894868,0.0584 0.194531,0.0106 0.389382,0.0141 0.58396,0.0241 0.214961,0.011 0.430676,0.0231 0.643894,0.0535 0.237222,0.0373 0.472452,0.0846 0.708874,0.12636 0.08484,0.0133 0.169791,0.0262 0.254713,0.0394 a 53.065482,16.391239 89.112101 0 0 8.001388,-46.98727 l -0.01824,-0.98744 a 53.065482,16.391239 89.112101 0 0 -17.432181,-51.7733 z m 8.799034,100.06249 c 0.04233,0.004 0.08469,0.008 0.127031,0.012 0.0027,-0.002 0.006,-0.004 0.0088,-0.007 -0.04526,-0.002 -0.09052,-0.004 -0.135767,-0.005 z m -12.4798,3.02186 c -5.5e-4,2.8e-4 -8.98e-4,6.9e-4 -0.0015,9.7e-4 a 53.065482,16.391239 89.112101 0 0 0.002,0.002 c -3.15e-4,-9.6e-4 -2.15e-4,-0.002 -4.29e-4,-0.003 z m 4.801617,1.84677 c -0.02712,0.009 -0.0543,0.0173 -0.08144,0.0261 -0.0069,0.009 -0.01389,0.0176 -0.02083,0.0264 0.03645,-0.009 0.07289,-0.0185 0.109272,-0.0279 -0.0032,-0.003 -0.0068,-0.005 -0.01,-0.006 -0.0058,-0.005 0.0043,-0.0125 0.0029,-0.0179 z" />
    <path
       style="fill:#ffb380;stroke-width:0.264583"
       id="path135"
       sodipodi:type="arc"
       sodipodi:cx="258.42188"
       sodipodi:cy="-48.134815"
       sodipodi:rx="12.805019"
       sodipodi:ry="16.818533"
       sodipodi:start="0"
       sodipodi:end="6.2645772"
       sodipodi:open="true"
       sodipodi:arc-type="arc"
       d="m 271.22689,-48.134815 a 12.805019,16.818533 0 0 1 -12.74545,16.818351 12.805019,16.818533 0 0 1 -12.86403,-16.661873 12.805019,16.818533 0 0 1 12.62576,-16.973373 12.805019,16.818533 0 0 1 12.98151,16.503952"
       transform="rotate(54.932657)" />
    <path
       style="fill:#483e37;stroke-width:0.264583"
       id="path136"
       sodipodi:type="arc"
       sodipodi:cx="62.487396"
       sodipodi:cy="199.67737"
       sodipodi:rx="1.3378378"
       sodipodi:ry="2.3889961"
       sodipodi:start="0"
       sodipodi:end="6.2645772"
       sodipodi:open="true"
       sodipodi:arc-type="arc"
       d="m 63.825234,199.67737 a 1.3378378,2.3889961 0 0 1 -1.331614,2.38897 1.3378378,2.3889961 0 0 1 -1.344004,-2.36674 1.3378378,2.3889961 0 0 1 1.31911,-2.411 1.3378378,2.3889961 0 0 1 1.356276,2.34432"
       transform="rotate(-17.081737)" />
    <path
       style="fill:#483e37;stroke-width:0.264583"
       id="path137"
       sodipodi:type="arc"
       sodipodi:cx="86.546852"
       sodipodi:cy="197.96904"
       sodipodi:rx="1.3378378"
       sodipodi:ry="2.3889961"
       sodipodi:start="0"
       sodipodi:end="6.2645772"
       sodipodi:open="true"
       sodipodi:arc-type="arc"
       d="m 87.88469,197.96904 a 1.3378378,2.3889961 0 0 1 -1.331614,2.38897 1.3378378,2.3889961 0 0 1 -1.344004,-2.36674 1.3378378,2.3889961 0 0 1 1.31911,-2.41099 1.3378378,2.3889961 0 0 1 1.356276,2.34431"
       transform="rotate(-10.385142)" />
    <path
       style="fill:#483e37;stroke-width:0.264583"
       id="path138"
       sodipodi:type="arc"
       sodipodi:cx="101.3531"
       sodipodi:cy="198.31641"
       sodipodi:rx="1.3378378"
       sodipodi:ry="2.3889961"
       sodipodi:start="0"
       sodipodi:end="6.2645772"
       sodipodi:open="true"
       sodipodi:arc-type="arc"
       d="m 102.69094,198.31641 a 1.3378378,2.3889961 0 0 1 -1.33161,2.38897 1.3378378,2.3889961 0 0 1 -1.34401,-2.36675 1.3378378,2.3889961 0 0 1 1.31911,-2.41099 1.3378378,2.3889961 0 0 1 1.35628,2.34431"
       transform="rotate(-6.2589804)" />
    <path
       style="fill:#ffb380;stroke-width:0.345208"
       id="path139"
       sodipodi:type="arc"
       sodipodi:cx="180.22585"
       sodipodi:cy="172.96332"
       sodipodi:rx="4.3957529"
       sodipodi:ry="8.6003857"
       sodipodi:start="0"
       sodipodi:end="6.2645772"
       sodipodi:open="true"
       sodipodi:arc-type="arc"
       d="m 184.6216,172.96332 a 4.3957529,8.6003857 0 0 1 -4.37531,8.60029 4.3957529,8.6003857 0 0 1 -4.41601,-8.52027 4.3957529,8.6003857 0 0 1 4.33422,-8.67957 4.3957529,8.6003857 0 0 1 4.45634,8.43952"
       inkscape:transform-center-x="-3.1649353"
       inkscape:transform-center-y="-6.0202688" />
  </g>
</svg>
